<svg id="구성_요소_88_1" data-name="구성 요소 88 – 1" xmlns="http://www.w3.org/2000/svg" xmlns:xlink="http://www.w3.org/1999/xlink" width="40" height="40" viewBox="0 0 40 40">
  <defs>
    <clipPath id="clip-path">
      <rect id="사각형_23987" data-name="사각형 23987" width="40" height="40" transform="translate(0.444)" fill="#191919"/>
    </clipPath>
  </defs>
  <g id="그룹_962" data-name="그룹 962" transform="translate(-0.444)">
    <g id="그룹_961" data-name="그룹 961" clip-path="url(#clip-path)">
      <path id="패스_412" data-name="패스 412" d="M28.017,13.653,20.717,2.72a1.654,1.654,0,0,0-1.383-.7,1.629,1.629,0,0,0-1.383.717l-7.3,10.917H2.667A1.672,1.672,0,0,0,1,15.32a1.4,1.4,0,0,0,.067.45L5.3,31.22a3.315,3.315,0,0,0,3.2,2.433H30.167a3.349,3.349,0,0,0,3.217-2.433l4.233-15.45.05-.45A1.672,1.672,0,0,0,36,13.653Zm-13.683,0,5-7.333,5,7.333Zm5,13.333a3.333,3.333,0,1,1,3.333-3.333,3.343,3.343,0,0,1-3.333,3.333" transform="translate(0.667 1.347)" fill="#191919"/>
    </g>
  </g>
</svg>
