<svg id="구성_요소_65_269" data-name="구성 요소 65 – 269" xmlns="http://www.w3.org/2000/svg" width="30" height="30" viewBox="0 0 30 30">
  <circle id="타원_39" data-name="타원 39" cx="15" cy="15" r="15" fill="#858585"/>
  <g id="그룹_463" data-name="그룹 463" transform="translate(5.84 8.215)">
    <g id="그룹_462" data-name="그룹 462" transform="translate(0)">
      <g id="그룹_457" data-name="그룹 457" transform="translate(9.121 5.739)">
        <path id="패스_202" data-name="패스 202" d="M367.058,291.876a.731.731,0,1,0,.731.732A.732.732,0,0,0,367.058,291.876Z" transform="translate(-366.326 -291.876)" fill="#fff"/>
      </g>
      <g id="그룹_458" data-name="그룹 458" transform="translate(13.181 5.793)">
        <path id="패스_203" data-name="패스 203" d="M375.082,291.984a.677.677,0,1,0,.677.677A.678.678,0,0,0,375.082,291.984Z" transform="translate(-374.405 -291.984)" fill="#fff"/>
      </g>
      <g id="그룹_460" data-name="그룹 460">
        <g id="그룹_459" data-name="그룹 459">
          <path id="패스_204" data-name="패스 204" d="M362.677,280.457H351.232a3.054,3.054,0,0,0-3.054,3.055v5.928a3.054,3.054,0,0,0,3.054,3.054h4.3l1.42,2.8,1.609-2.8h4.114a3.055,3.055,0,0,0,3.055-3.054v-5.928A3.055,3.055,0,0,0,362.677,280.457Zm-10.708,8.11a1.667,1.667,0,0,1-.853-.234v.212h-1.145V283.9h1.145v1.535a1.683,1.683,0,1,1,.853,3.134Zm3.569-3.1v3.1h-1.1v-3.1c0-.673-.427-.673-.427-.673v-.9a1.375,1.375,0,0,1,1.466,1.122,1.991,1.991,0,0,1,.06.443Zm2.493,3.236a1.778,1.778,0,1,1,1.778-1.778A1.779,1.779,0,0,1,358.03,288.706Zm3.839,1.462v-.9s1,.116,1-.449v-.476a1.646,1.646,0,1,1,0-2.837v-.144h1.064v3.457S364.163,290.168,361.869,290.168Z" transform="translate(-348.178 -280.457)" fill="#fff"/>
        </g>
      </g>
      <g id="그룹_461" data-name="그룹 461" transform="translate(2.982 5.742)">
        <path id="패스_205" data-name="패스 205" d="M354.8,291.883a.684.684,0,1,0,.684.684A.686.686,0,0,0,354.8,291.883Z" transform="translate(-354.112 -291.883)" fill="#fff"/>
      </g>
    </g>
  </g>
</svg>
