<svg id="구성_요소_96_6" data-name="구성 요소 96 – 6" xmlns="http://www.w3.org/2000/svg" width="18" height="20" viewBox="0 0 18 20">
  <g id="그룹_2460" data-name="그룹 2460" transform="translate(-1062 -414)">
    <path id="Vector" d="M13.53,10.06,12.47,9,7.59,13.88,5.47,11.76,4.41,12.82,7.59,16ZM16,2H15V0H13V2H5V0H3V2H2A1.991,1.991,0,0,0,.01,4L0,18a2,2,0,0,0,2,2H16a2.006,2.006,0,0,0,2-2V4A2.006,2.006,0,0,0,16,2Zm0,16H2V7H16Z" transform="translate(1062 414)"/>
    <rect id="사각형_24897" data-name="사각형 24897" width="14" height="9" transform="translate(1064 422)" fill="#fff"/>
  </g>
</svg>
