<svg id="구성_요소_81_1" data-name="구성 요소 81 – 1" xmlns="http://www.w3.org/2000/svg" width="34.445" height="34.445" viewBox="0 0 34.445 34.445">
  <rect id="사각형_23905" data-name="사각형 23905" width="34.445" height="34.445" rx="17.223" fill="#4267b2"/>
  <path id="패스_353" data-name="패스 353" d="M-2295.224,2997h.632a.26.26,0,0,0,.055.017l1.114.031c.09,0,.181.008.271.015.235.017.47.035.7.055.125.01.249.027.375.041v3.431h-.088c-.491,0-.982,0-1.474,0-.32,0-.64.01-.959.029a1.711,1.711,0,0,0-.735.219,1.183,1.183,0,0,0-.521.59,2.516,2.516,0,0,0-.163.971c-.005.814,0,1.628,0,2.443v.081h3.81c-.165,1.284-.33,2.559-.5,3.84h-3.314v.083q0,.38,0,.759,0,4.045,0,8.091c0,.309,0,.618,0,.927h-3.96c0-.016,0-.033,0-.049q0-4.865,0-9.73c0-.07-.022-.084-.088-.084h-3.233v-3.838h3.22c.1,0,.1,0,.1-.1q0-1.369,0-2.738a7.213,7.213,0,0,1,.072-1.052,5.339,5.339,0,0,1,.421-1.463,4.2,4.2,0,0,1,1.005-1.383,4.395,4.395,0,0,1,1.651-.927,5.44,5.44,0,0,1,1.531-.248A.332.332,0,0,0-2295.224,2997Z" transform="translate(2315.305 -2990.59)" fill="#fff"/>
</svg>
