<svg id="구성_요소_67_269" data-name="구성 요소 67 – 269" xmlns="http://www.w3.org/2000/svg" width="30" height="30" viewBox="0 0 30 30">
  <circle id="타원_35" data-name="타원 35" cx="15" cy="15" r="15" fill="#858585"/>
  <path id="패스_197" data-name="패스 197" d="M-2297.189,2997h.478a.16.16,0,0,0,.042.012l.842.024c.069,0,.137.006.206.011.177.013.355.026.532.042.094.008.188.02.283.031v2.6h-.066c-.372,0-.743,0-1.115,0-.242,0-.484.007-.725.022a1.288,1.288,0,0,0-.556.166.894.894,0,0,0-.394.447,1.892,1.892,0,0,0-.123.735c0,.616,0,1.231,0,1.847v.061h2.881l-.375,2.9h-2.506v.063q0,.287,0,.573,0,3.06,0,6.121c0,.233,0,.467,0,.7h-3c0-.012,0-.024,0-.037q0-3.68,0-7.36c0-.053-.017-.064-.067-.064q-1.189,0-2.379,0h-.066v-2.9h2.436c.075,0,.075,0,.075-.074q0-1.036,0-2.071a5.354,5.354,0,0,1,.054-.8,4.042,4.042,0,0,1,.319-1.106,3.181,3.181,0,0,1,.76-1.046,3.313,3.313,0,0,1,1.249-.7,4.133,4.133,0,0,1,1.158-.187A.223.223,0,0,0-2297.189,2997Z" transform="translate(2313.129 -2990.34)" fill="#fff"/>
</svg>
