<svg id="그룹_2269" data-name="그룹 2269" xmlns="http://www.w3.org/2000/svg" xmlns:xlink="http://www.w3.org/1999/xlink" width="24" height="24" viewBox="0 0 24 24">
  <defs>
    <clipPath id="clip-path">
      <rect id="사각형_24671" data-name="사각형 24671" width="24" height="24" fill="none"/>
    </clipPath>
    <clipPath id="clip-path-2">
      <rect id="사각형_24670" data-name="사각형 24670" width="16.608" height="7.445" fill="none"/>
    </clipPath>
  </defs>
  <g id="그룹_2268" data-name="그룹 2268" clip-path="url(#clip-path)">
    <path id="패스_594" data-name="패스 594" d="M23.54,12.02a11.523,11.523,0,1,0-.809,4.24,11.513,11.513,0,0,0,.809-4.24" transform="translate(-0.02 -0.02)" fill="#fff"/>
    <path id="패스_595" data-name="패스 595" d="M23.54,12.02a11.523,11.523,0,1,0-.809,4.24A11.513,11.513,0,0,0,23.54,12.02Z" transform="translate(-0.02 -0.02)" fill="none" stroke="#dbdbdb" stroke-linecap="round" stroke-linejoin="round" stroke-width="1"/>
    <g id="그룹_2267" data-name="그룹 2267" transform="translate(3.696 10.393)">
      <g id="그룹_2266" data-name="그룹 2266" clip-path="url(#clip-path-2)">
        <g id="그룹_2265" data-name="그룹 2265">
          <g id="그룹_2264" data-name="그룹 2264" clip-path="url(#clip-path-2)">
            <path id="패스_596" data-name="패스 596" d="M20.221,12.474a1.466,1.466,0,0,1,.008,1.587c-.507.658-1.908.807-3.037,1.092a9.887,9.887,0,0,0-2.917,1.278,14.042,14.042,0,0,1-3,1.621,8.928,8.928,0,0,1-3.428.219A5.169,5.169,0,0,1,4.9,17.347a2.573,2.573,0,0,1-.957-2.624,1.755,1.755,0,0,1,.305-.518,1.421,1.421,0,0,0,.593,1.476,4.2,4.2,0,0,0,2.434.646,8.019,8.019,0,0,0,2.781-.213,11.618,11.618,0,0,0,2.436-1.32,6.622,6.622,0,0,1,2.883-1.013A23.818,23.818,0,0,0,20,13.062c.214-.093.376-.2.222-.588" transform="translate(-3.85 -10.892)" fill="#eaeaea"/>
            <path id="패스_597" data-name="패스 597" d="M20.237,12.408c.155.385-.008.494-.222.588a23.818,23.818,0,0,1-4.622.719,6.622,6.622,0,0,0-2.883,1.013,11.618,11.618,0,0,1-2.436,1.32,8.019,8.019,0,0,1-2.781.213,4.2,4.2,0,0,1-2.434-.646,1.421,1.421,0,0,1-.593-1.476,6.111,6.111,0,0,1,2.161-1.448,17.37,17.37,0,0,1,3-1.112,22.324,22.324,0,0,1,3.185-.588,25.583,25.583,0,0,1,3.35-.163,6.569,6.569,0,0,1,3.516.719,2.424,2.424,0,0,1,.756.86" transform="translate(-3.865 -10.826)" fill="#ddd"/>
          </g>
        </g>
      </g>
    </g>
    <path id="패스_598" data-name="패스 598" d="M12.963,3.846a4.528,4.528,0,0,0,1.08.363,2.181,2.181,0,0,0,1.118-.16c.3-.115.744-.337,1.062-.423a1.061,1.061,0,0,1,1.066.221V6.4a1.058,1.058,0,0,0-1.067-.22c-.318.085-.757.307-1.062.422a2.179,2.179,0,0,1-1.118.16A4.563,4.563,0,0,1,12.963,6.4v6.082a.147.147,0,0,1,.112.2.248.248,0,0,1-.224.123.254.254,0,0,1-.229-.114.143.143,0,0,1,.1-.209V3.846Z" transform="translate(-0.504 -0.143)" fill="#ef4da2"/>
    <path id="패스_599" data-name="패스 599" d="M9.805,7.631a1.6,1.6,0,0,0-1.6,1.6c0,1.2,1.6,2.94,1.6,2.94s1.6-1.737,1.6-2.94a1.6,1.6,0,0,0-1.6-1.6m0,2.137a.534.534,0,1,1,.535-.535.536.536,0,0,1-.535.535" transform="translate(-0.328 -0.305)" fill="#ef4da2"/>
  </g>
</svg>
