<svg id="그룹_2248" data-name="그룹 2248" xmlns="http://www.w3.org/2000/svg" xmlns:xlink="http://www.w3.org/1999/xlink" width="24" height="24" viewBox="0 0 24 24">
  <defs>
    <clipPath id="clip-path">
      <rect id="사각형_24662" data-name="사각형 24662" width="24" height="24" fill="none"/>
    </clipPath>
    <clipPath id="clip-path-3">
      <rect id="사각형_24658" data-name="사각형 24658" width="17.309" height="11.883" fill="none"/>
    </clipPath>
    <clipPath id="clip-path-4">
      <rect id="사각형_24659" data-name="사각형 24659" width="12.199" height="8.265" fill="none"/>
    </clipPath>
    <clipPath id="clip-path-5">
      <rect id="사각형_24660" data-name="사각형 24660" width="5.245" height="3.553" fill="none"/>
    </clipPath>
  </defs>
  <g id="그룹_2247" data-name="그룹 2247" clip-path="url(#clip-path)">
    <g id="그룹_2246" data-name="그룹 2246">
      <g id="그룹_2245" data-name="그룹 2245" clip-path="url(#clip-path)">
        <path id="패스_568" data-name="패스 568" d="M23.54,12.02a11.523,11.523,0,1,0-.809,4.24,11.513,11.513,0,0,0,.809-4.24" transform="translate(-0.02 -0.02)" fill="#fff"/>
        <path id="패스_569" data-name="패스 569" d="M23.54,12.02a11.523,11.523,0,1,0-.809,4.24A11.513,11.513,0,0,0,23.54,12.02Z" transform="translate(-0.02 -0.02)" fill="none" stroke="#dbdbdb" stroke-linecap="round" stroke-linejoin="round" stroke-width="1"/>
        <g id="그룹_2238" data-name="그룹 2238" transform="translate(3.346 7.08)" opacity="0.61">
          <g id="그룹_2237" data-name="그룹 2237">
            <g id="그룹_2236" data-name="그룹 2236" clip-path="url(#clip-path-3)">
              <path id="패스_570" data-name="패스 570" d="M20.552,12.633a3.557,3.557,0,0,0-1.276-2.466A8.206,8.206,0,0,0,16.667,8.2,5.438,5.438,0,0,0,12.7,7.877c-1.234.481-2.136,1.729-3.253,2.391a13.774,13.774,0,0,1-3.53,1.046A2.646,2.646,0,0,0,3.8,13.1a4.949,4.949,0,0,0,.885,3.352,5.394,5.394,0,0,0,2.862,2.329,4.852,4.852,0,0,0,3.857-.346c1.2-.684,2.145-1.994,3.5-2.291s3.13.42,4.219-.09,1.5-2.245,1.429-3.419" transform="translate(-3.495 -7.386)" fill="#f7f7f7"/>
              <path id="패스_571" data-name="패스 571" d="M20.552,12.633a3.557,3.557,0,0,0-1.276-2.466A8.206,8.206,0,0,0,16.667,8.2,5.438,5.438,0,0,0,12.7,7.877c-1.234.481-2.136,1.729-3.253,2.391a13.774,13.774,0,0,1-3.53,1.046A2.646,2.646,0,0,0,3.8,13.1a4.949,4.949,0,0,0,.885,3.352,5.394,5.394,0,0,0,2.862,2.329,4.852,4.852,0,0,0,3.857-.346c1.2-.684,2.145-1.994,3.5-2.291s3.13.42,4.219-.09S20.621,13.806,20.552,12.633Z" transform="translate(-3.495 -7.386)" fill="none" stroke="#dbdbdb" stroke-width="0.51"/>
            </g>
          </g>
        </g>
        <g id="그룹_2241" data-name="그룹 2241" transform="translate(5.943 8.906)" opacity="0.72">
          <g id="그룹_2240" data-name="그룹 2240">
            <g id="그룹_2239" data-name="그룹 2239" clip-path="url(#clip-path-4)">
              <path id="패스_572" data-name="패스 572" d="M18.367,12.887a3.679,3.679,0,0,0-1.375-2.238,5.328,5.328,0,0,0-2.341-1.286,3.3,3.3,0,0,0-2.543.421c-.719.494-1.2,1.369-2.018,1.733s-1.958.219-2.744.59A2.167,2.167,0,0,0,6.2,14.23a3.582,3.582,0,0,0,1.329,2.313,3.76,3.76,0,0,0,2.446,1,3.867,3.867,0,0,0,2.33-.982c.637-.539,1.074-1.186,1.958-1.284s2.219.351,3.054.01a2.268,2.268,0,0,0,1.053-2.4" transform="translate(-6.191 -9.277)" fill="#eaeaea"/>
            </g>
          </g>
        </g>
        <g id="그룹_2244" data-name="그룹 2244" transform="translate(9.378 11.245)" opacity="0.89">
          <g id="그룹_2243" data-name="그룹 2243">
            <g id="그룹_2242" data-name="그룹 2242" clip-path="url(#clip-path-5)">
              <path id="패스_573" data-name="패스 573" d="M15.011,13.274a1.107,1.107,0,0,0-.4-.769,2.557,2.557,0,0,0-.813-.612,1.7,1.7,0,0,0-1.236-.1c-.384.15-.666.54-1.015.746a4.285,4.285,0,0,1-1.1.326.827.827,0,0,0-.662.556,1.546,1.546,0,0,0,.276,1.045,1.689,1.689,0,0,0,.893.726,1.514,1.514,0,0,0,1.2-.108c.373-.213.669-.622,1.092-.714s.976.131,1.316-.029.467-.7.445-1.066" transform="translate(-9.768 -11.714)" fill="#ddd"/>
            </g>
          </g>
        </g>
        <path id="패스_574" data-name="패스 574" d="M12.3,3.771A2.828,2.828,0,0,0,12.974,4a1.361,1.361,0,0,0,.7-.1c.19-.072.466-.211.664-.265A.663.663,0,0,1,15,3.771v1.6a.662.662,0,0,0-.667-.137c-.2.054-.474.192-.663.264a1.373,1.373,0,0,1-.7.1A2.874,2.874,0,0,1,12.3,5.37V9.176a.091.091,0,0,1,.07.128.156.156,0,0,1-.14.078.16.16,0,0,1-.143-.072.089.089,0,0,1,.061-.131V3.771Z" transform="translate(-0.483 -0.144)" fill="#7676ff"/>
        <line id="선_343" data-name="선 343" x2="0.484" y2="0.829" transform="translate(11.86 9.413)" fill="none" stroke="#adadad" stroke-width="0.5"/>
        <line id="선_344" data-name="선 344" x2="0.869" y2="1.49" transform="translate(12.591 10.668)" fill="none" stroke="#adadad" stroke-width="0.5" stroke-dasharray="0.513 0.513 0.513 0.513"/>
        <line id="선_345" data-name="선 345" x2="0.484" y2="0.829" transform="translate(13.584 12.371)" fill="none" stroke="#adadad" stroke-width="0.5"/>
        <path id="패스_575" data-name="패스 575" d="M14.8,8.11a2.828,2.828,0,0,0,.676.227,1.361,1.361,0,0,0,.7-.1c.19-.072.466-.211.664-.265a.663.663,0,0,1,.666.138v1.6a.662.662,0,0,0-.667-.137c-.2.054-.474.192-.663.264a1.373,1.373,0,0,1-.7.1,2.874,2.874,0,0,1-.676-.228v3.805a.091.091,0,0,1,.07.128.156.156,0,0,1-.14.078.16.16,0,0,1-.143-.072.089.089,0,0,1,.061-.131V8.11Z" transform="translate(-0.583 -0.318)" fill="#ef4da2"/>
      </g>
    </g>
  </g>
</svg>
