<svg id="그룹_2235" data-name="그룹 2235" xmlns="http://www.w3.org/2000/svg" xmlns:xlink="http://www.w3.org/1999/xlink" width="24" height="24" viewBox="0 0 24 24">
  <defs>
    <clipPath id="clip-path">
      <rect id="사각형_24657" data-name="사각형 24657" width="24" height="24" fill="none"/>
    </clipPath>
    <clipPath id="clip-path-3">
      <rect id="사각형_24648" data-name="사각형 24648" width="18.133" height="16.447" fill="none"/>
    </clipPath>
    <clipPath id="clip-path-4">
      <rect id="사각형_24649" data-name="사각형 24649" width="11.68" height="10.564" fill="none"/>
    </clipPath>
    <clipPath id="clip-path-5">
      <rect id="사각형_24650" data-name="사각형 24650" width="6.271" height="5.672" fill="none"/>
    </clipPath>
    <clipPath id="clip-path-6">
      <rect id="사각형_24651" data-name="사각형 24651" width="6.267" height="4.056" fill="none"/>
    </clipPath>
    <clipPath id="clip-path-7">
      <rect id="사각형_24652" data-name="사각형 24652" width="7.721" height="6.696" fill="none"/>
    </clipPath>
    <clipPath id="clip-path-8">
      <rect id="사각형_24653" data-name="사각형 24653" width="4.482" height="3.135" fill="none"/>
    </clipPath>
    <clipPath id="clip-path-9">
      <rect id="사각형_24654" data-name="사각형 24654" width="10.273" height="8.18" fill="none"/>
    </clipPath>
    <clipPath id="clip-path-10">
      <rect id="사각형_24655" data-name="사각형 24655" width="2.83" height="3.862" fill="none"/>
    </clipPath>
  </defs>
  <g id="그룹_2234" data-name="그룹 2234" clip-path="url(#clip-path)">
    <g id="그룹_2233" data-name="그룹 2233">
      <g id="그룹_2232" data-name="그룹 2232" clip-path="url(#clip-path)">
        <path id="패스_557" data-name="패스 557" d="M23.54,12.02a11.523,11.523,0,1,0-.809,4.24,11.513,11.513,0,0,0,.809-4.24" transform="translate(-0.02 -0.02)" fill="#fff"/>
        <path id="패스_558" data-name="패스 558" d="M23.54,12.02a11.523,11.523,0,1,0-.809,4.24A11.513,11.513,0,0,0,23.54,12.02Z" transform="translate(-0.02 -0.02)" fill="none" stroke="#dbdbdb" stroke-linecap="round" stroke-linejoin="round" stroke-width="1"/>
        <g id="그룹_2210" data-name="그룹 2210" transform="translate(2.934 3.777)" opacity="0.61">
          <g id="그룹_2209" data-name="그룹 2209">
            <g id="그룹_2208" data-name="그룹 2208" clip-path="url(#clip-path-3)">
              <path id="패스_559" data-name="패스 559" d="M20.855,11.707c.218-1.492.123-3.284-.757-4.181s-2.55-.9-3.889-1.47-2.351-1.719-3.9-1.853S8.66,4.948,6.953,5.979A8.211,8.211,0,0,0,3.492,9.3c-.431,1.1.031,2.131.113,3.466s-.213,2.977.225,4.3a4.652,4.652,0,0,0,2.944,2.793,3.989,3.989,0,0,0,3.654-.309c.83-.684,1-1.964,2.414-2.725s4.074-1,5.67-1.718a3.9,3.9,0,0,0,2.342-3.4" transform="translate(-3.066 -3.944)" fill="#f7f7f7"/>
              <path id="패스_560" data-name="패스 560" d="M20.855,11.707c.218-1.492.123-3.284-.757-4.181s-2.55-.9-3.889-1.47-2.351-1.719-3.9-1.853S8.66,4.948,6.953,5.979A8.211,8.211,0,0,0,3.492,9.3c-.431,1.1.031,2.131.113,3.466s-.213,2.977.225,4.3a4.652,4.652,0,0,0,2.944,2.793,3.989,3.989,0,0,0,3.654-.309c.83-.684,1-1.964,2.414-2.725s4.074-1,5.67-1.718A3.9,3.9,0,0,0,20.855,11.707Z" transform="translate(-3.066 -3.944)" fill="none" stroke="#dbdbdb" stroke-width="0.51"/>
            </g>
          </g>
        </g>
        <g id="그룹_2213" data-name="그룹 2213" transform="translate(6.16 6.718)" opacity="0.72">
          <g id="그룹_2212" data-name="그룹 2212">
            <g id="그룹_2211" data-name="그룹 2211" clip-path="url(#clip-path-4)">
              <path id="패스_561" data-name="패스 561" d="M18.031,11.975a3.487,3.487,0,0,0-.5-2.768c-.583-.593-1.687-.594-2.574-.973S13.4,7.1,12.371,7.007A6.741,6.741,0,0,0,8.828,8.184a5.436,5.436,0,0,0-2.291,2.2c-.285.732.02,1.411.075,2.294a11.564,11.564,0,0,0,.149,2.847,3.082,3.082,0,0,0,1.949,1.849,2.645,2.645,0,0,0,2.419-.2c.549-.453.662-1.3,1.6-1.8s2.7-.663,3.753-1.138a2.582,2.582,0,0,0,1.551-2.25" transform="translate(-6.417 -6.998)" fill="#eaeaea"/>
            </g>
          </g>
        </g>
        <g id="그룹_2216" data-name="그룹 2216" transform="translate(8.864 9.164)" opacity="0.89">
          <g id="그룹_2215" data-name="그룹 2215">
            <g id="그룹_2214" data-name="그룹 2214" clip-path="url(#clip-path-5)">
              <path id="패스_562" data-name="패스 562" d="M15.47,12.218a1.869,1.869,0,0,0-.27-1.486c-.313-.319-.906-.319-1.382-.522s-.835-.612-1.387-.659a3.618,3.618,0,0,0-1.9.631A2.919,2.919,0,0,0,9.3,11.362c-.153.393.011.757.04,1.232a6.24,6.24,0,0,0,.08,1.529,1.658,1.658,0,0,0,1.046.993,1.42,1.42,0,0,0,1.3-.11c.3-.243.356-.7.858-.969s1.449-.356,2.016-.611a1.389,1.389,0,0,0,.832-1.209" transform="translate(-9.234 -9.546)" fill="#ddd"/>
            </g>
          </g>
        </g>
        <g id="그룹_2219" data-name="그룹 2219" transform="translate(6.611 4.022)" opacity="0.6">
          <g id="그룹_2218" data-name="그룹 2218">
            <g id="그룹_2217" data-name="그룹 2217" clip-path="url(#clip-path-6)">
              <path id="패스_563" data-name="패스 563" d="M8.577,7.593a6.525,6.525,0,0,0,1.658.582,4.243,4.243,0,0,0,2.048-.116,1.236,1.236,0,0,0,.872-1.2,18.275,18.275,0,0,0-.412-1.817,4.365,4.365,0,0,1-.015-.8c-.091-.015-.184-.028-.278-.036C10.9,4.069,8.8,4.947,7.1,5.979c-.071.042-.139.085-.209.129a1.559,1.559,0,0,0,.238.556,3.454,3.454,0,0,0,1.452.929" transform="translate(-6.887 -4.189)" fill="#7676ff"/>
            </g>
          </g>
        </g>
        <g id="그룹_2222" data-name="그룹 2222" transform="translate(3.179 8.87)" opacity="0.6">
          <g id="그룹_2221" data-name="그룹 2221">
            <g id="그룹_2220" data-name="그룹 2220" clip-path="url(#clip-path-7)">
              <path id="패스_564" data-name="패스 564" d="M4.584,15.873c2.359-.473,2.346-1.965,3.039-2.789s2.089-.978,2.8-1.286.743-.768.372-1.257A3.217,3.217,0,0,0,8.552,9.427c-1.1-.111-2.545.182-3.481-.03a1.633,1.633,0,0,0-1.578.1c-.431,1.1.031,2.131.113,3.466.054.87-.052,1.869-.012,2.827.218.2.632.15.99.078" transform="translate(-3.311 -9.239)" fill="#ed0f8e"/>
            </g>
          </g>
        </g>
        <g id="그룹_2225" data-name="그룹 2225" transform="translate(16.331 7.066)" opacity="0.6">
          <g id="그룹_2224" data-name="그룹 2224">
            <g id="그룹_2223" data-name="그룹 2223" clip-path="url(#clip-path-8)">
              <path id="패스_565" data-name="패스 565" d="M18.609,8.118a4.4,4.4,0,0,0-1.395.807.781.781,0,0,0-.039,1,1.662,1.662,0,0,0,.986.5,1.886,1.886,0,0,0,1.2-.06c.391-.175.758-.557,1.265-.427.29.075.626.318.87.247a3.851,3.851,0,0,0-.849-2.534,2.24,2.24,0,0,0-.359-.292c-.091.036-.181.073-.273.111-.443.189-.885.412-1.4.647" transform="translate(-17.012 -7.36)" fill="#7676ff"/>
            </g>
          </g>
        </g>
        <g id="그룹_2228" data-name="그룹 2228" transform="translate(5.276 11.799)" opacity="0.6">
          <g id="그룹_2227" data-name="그룹 2227">
            <g id="그룹_2226" data-name="그룹 2226" clip-path="url(#clip-path-9)">
              <path id="패스_566" data-name="패스 566" d="M13.988,13.8c-.409-.409-.71-1.1-1.356-1.375a1.764,1.764,0,0,0-2.147.643c-.51.794-.538,2.253-1.42,3.108s-2.618,1.11-3.384,2.3a1.572,1.572,0,0,0-.167,1,5.285,5.285,0,0,0,1.347.7,3.992,3.992,0,0,0,3.654-.309c.83-.684,1-1.965,2.415-2.725a12.515,12.515,0,0,1,2.838-.893,2.591,2.591,0,0,0-.412-1.337c-.442-.579-.959-.709-1.368-1.118" transform="translate(-5.496 -12.291)" fill="#d3d3d3"/>
            </g>
          </g>
        </g>
        <g id="그룹_2231" data-name="그룹 2231" transform="translate(17.95 10.977)" opacity="0.6">
          <g id="그룹_2230" data-name="그룹 2230">
            <g id="그룹_2229" data-name="그룹 2229" clip-path="url(#clip-path-10)">
              <path id="패스_567" data-name="패스 567" d="M20.316,11.688c-.5.257-.85.3-1.127.661A3.142,3.142,0,0,0,18.7,14.1a1.234,1.234,0,0,0,.634,1.2A3.919,3.919,0,0,0,21.47,12c.023-.16.042-.324.058-.491a1.383,1.383,0,0,0-1.212.182" transform="translate(-18.698 -11.435)" fill="#ed0f8e"/>
            </g>
          </g>
        </g>
      </g>
    </g>
  </g>
</svg>
