<svg id="그룹_2207" data-name="그룹 2207" xmlns="http://www.w3.org/2000/svg" xmlns:xlink="http://www.w3.org/1999/xlink" width="24" height="24" viewBox="0 0 24 24">
  <defs>
    <clipPath id="clip-path">
      <rect id="사각형_24647" data-name="사각형 24647" width="24" height="24" fill="none"/>
    </clipPath>
    <clipPath id="clip-path-3">
      <rect id="사각형_24643" data-name="사각형 24643" width="18.133" height="16.447" fill="none"/>
    </clipPath>
    <clipPath id="clip-path-4">
      <rect id="사각형_24644" data-name="사각형 24644" width="11.68" height="10.564" fill="none"/>
    </clipPath>
    <clipPath id="clip-path-5">
      <rect id="사각형_24645" data-name="사각형 24645" width="6.271" height="5.672" fill="none"/>
    </clipPath>
  </defs>
  <g id="그룹_2206" data-name="그룹 2206" clip-path="url(#clip-path)">
    <g id="그룹_2205" data-name="그룹 2205">
      <g id="그룹_2204" data-name="그룹 2204" clip-path="url(#clip-path)">
        <path id="패스_551" data-name="패스 551" d="M23.54,12.02a11.523,11.523,0,1,0-.809,4.24,11.513,11.513,0,0,0,.809-4.24" transform="translate(-0.02 -0.02)" fill="#fff"/>
        <path id="패스_552" data-name="패스 552" d="M23.54,12.02a11.523,11.523,0,1,0-.809,4.24A11.513,11.513,0,0,0,23.54,12.02Z" transform="translate(-0.02 -0.02)" fill="none" stroke="#dbdbdb" stroke-linecap="round" stroke-linejoin="round" stroke-width="1"/>
        <g id="그룹_2197" data-name="그룹 2197" transform="translate(2.934 3.777)" opacity="0.61">
          <g id="그룹_2196" data-name="그룹 2196">
            <g id="그룹_2195" data-name="그룹 2195" clip-path="url(#clip-path-3)">
              <path id="패스_553" data-name="패스 553" d="M20.855,11.707c.218-1.492.123-3.284-.757-4.181s-2.55-.9-3.889-1.47-2.351-1.719-3.9-1.853S8.66,4.948,6.953,5.979A8.211,8.211,0,0,0,3.492,9.3c-.431,1.1.031,2.131.113,3.466s-.213,2.977.225,4.3a4.652,4.652,0,0,0,2.944,2.793,3.989,3.989,0,0,0,3.654-.309c.83-.684,1-1.964,2.414-2.725s4.074-1,5.67-1.718a3.9,3.9,0,0,0,2.342-3.4" transform="translate(-3.066 -3.944)" fill="#f7f7f7"/>
              <path id="패스_554" data-name="패스 554" d="M20.855,11.707c.218-1.492.123-3.284-.757-4.181s-2.55-.9-3.889-1.47-2.351-1.719-3.9-1.853S8.66,4.948,6.953,5.979A8.211,8.211,0,0,0,3.492,9.3c-.431,1.1.031,2.131.113,3.466s-.213,2.977.225,4.3a4.652,4.652,0,0,0,2.944,2.793,3.989,3.989,0,0,0,3.654-.309c.83-.684,1-1.964,2.414-2.725s4.074-1,5.67-1.718A3.9,3.9,0,0,0,20.855,11.707Z" transform="translate(-3.066 -3.944)" fill="none" stroke="#dbdbdb" stroke-width="0.51"/>
            </g>
          </g>
        </g>
        <g id="그룹_2200" data-name="그룹 2200" transform="translate(6.16 6.718)" opacity="0.72">
          <g id="그룹_2199" data-name="그룹 2199">
            <g id="그룹_2198" data-name="그룹 2198" clip-path="url(#clip-path-4)">
              <path id="패스_555" data-name="패스 555" d="M18.031,11.975a3.487,3.487,0,0,0-.5-2.768c-.583-.593-1.687-.594-2.574-.973S13.4,7.1,12.371,7.007A6.741,6.741,0,0,0,8.828,8.184a5.436,5.436,0,0,0-2.291,2.2c-.285.732.02,1.411.075,2.294a11.564,11.564,0,0,0,.149,2.847,3.082,3.082,0,0,0,1.949,1.849,2.645,2.645,0,0,0,2.419-.2c.549-.453.662-1.3,1.6-1.8s2.7-.663,3.753-1.138a2.582,2.582,0,0,0,1.551-2.25" transform="translate(-6.417 -6.998)" fill="#eaeaea"/>
            </g>
          </g>
        </g>
        <g id="그룹_2203" data-name="그룹 2203" transform="translate(8.864 9.164)" opacity="0.89">
          <g id="그룹_2202" data-name="그룹 2202">
            <g id="그룹_2201" data-name="그룹 2201" clip-path="url(#clip-path-5)">
              <path id="패스_556" data-name="패스 556" d="M15.47,12.218a1.869,1.869,0,0,0-.27-1.486c-.313-.319-.906-.319-1.382-.522s-.835-.612-1.387-.66a3.628,3.628,0,0,0-1.9.632A2.919,2.919,0,0,0,9.3,11.362c-.153.393.011.757.04,1.232a6.24,6.24,0,0,0,.08,1.529,1.658,1.658,0,0,0,1.046.993,1.42,1.42,0,0,0,1.3-.11c.3-.243.356-.7.858-.969s1.449-.356,2.016-.611a1.389,1.389,0,0,0,.832-1.209" transform="translate(-9.234 -9.546)" fill="#ddd"/>
            </g>
          </g>
        </g>
      </g>
    </g>
  </g>
</svg>
