<svg id="그룹_2194" data-name="그룹 2194" xmlns="http://www.w3.org/2000/svg" xmlns:xlink="http://www.w3.org/1999/xlink" width="24" height="24" viewBox="0 0 24 24">
  <defs>
    <clipPath id="clip-path">
      <rect id="사각형_24642" data-name="사각형 24642" width="24" height="24" fill="none"/>
    </clipPath>
    <clipPath id="clip-path-3">
      <rect id="사각형_24638" data-name="사각형 24638" width="10.529" height="19.723" fill="none"/>
    </clipPath>
    <clipPath id="clip-path-4">
      <rect id="사각형_24639" data-name="사각형 24639" width="6.753" height="13.214" fill="none"/>
    </clipPath>
    <clipPath id="clip-path-5">
      <rect id="사각형_24640" data-name="사각형 24640" width="3.846" height="8.517" fill="none"/>
    </clipPath>
  </defs>
  <g id="그룹_2193" data-name="그룹 2193" clip-path="url(#clip-path)">
    <g id="그룹_2192" data-name="그룹 2192">
      <g id="그룹_2191" data-name="그룹 2191" clip-path="url(#clip-path)">
        <path id="패스_542" data-name="패스 542" d="M23.54,12.02a11.523,11.523,0,1,0-.809,4.24,11.513,11.513,0,0,0,.809-4.24" transform="translate(-0.02 -0.02)" fill="#fff"/>
        <path id="패스_543" data-name="패스 543" d="M23.54,12.02a11.523,11.523,0,1,0-.809,4.24A11.513,11.513,0,0,0,23.54,12.02Z" transform="translate(-0.02 -0.02)" fill="none" stroke="#dbdbdb" stroke-linecap="round" stroke-linejoin="round" stroke-width="1"/>
        <g id="그룹_2184" data-name="그룹 2184" transform="translate(6.736 2.138)" opacity="0.61">
          <g id="그룹_2183" data-name="그룹 2183">
            <g id="그룹_2182" data-name="그룹 2182" clip-path="url(#clip-path-3)">
              <path id="패스_544" data-name="패스 544" d="M11.887,21.717a3.575,3.575,0,0,0,2.569-1.288,11.985,11.985,0,0,0,1.862-3.52,9.4,9.4,0,0,0,.933-4.765c-.255-1.636-1.38-3.228-2.214-4.681a21.883,21.883,0,0,0-2.191-3.648A4.017,4.017,0,0,0,9.9,2.483,2.628,2.628,0,0,0,7.428,3.771c-.369.839-.065,2.067.717,3.414a26.737,26.737,0,0,1,2.628,4.49,9.852,9.852,0,0,1,.17,5.127c-.324,1.559-.882,2.787-.78,3.626a1.581,1.581,0,0,0,1.724,1.288" transform="translate(-7.027 -2.238)" fill="#f7f7f7"/>
              <path id="패스_545" data-name="패스 545" d="M11.887,21.717a3.575,3.575,0,0,0,2.569-1.288,11.985,11.985,0,0,0,1.862-3.52,9.4,9.4,0,0,0,.933-4.765c-.255-1.636-1.38-3.228-2.214-4.681a21.883,21.883,0,0,0-2.191-3.648A4.017,4.017,0,0,0,9.9,2.483,2.628,2.628,0,0,0,7.428,3.771c-.369.839-.065,2.067.717,3.414a26.737,26.737,0,0,1,2.628,4.49,9.852,9.852,0,0,1,.17,5.127c-.324,1.559-.882,2.787-.78,3.626A1.581,1.581,0,0,0,11.887,21.717Z" transform="translate(-7.027 -2.238)" fill="none" stroke="#dbdbdb" stroke-width="0.51"/>
            </g>
          </g>
        </g>
        <g id="그룹_2187" data-name="그룹 2187" transform="translate(8.642 5.566)" opacity="0.72">
          <g id="그룹_2186" data-name="그룹 2186">
            <g id="그룹_2185" data-name="그룹 2185" clip-path="url(#clip-path-4)">
              <path id="패스_546" data-name="패스 546" d="M12.225,19.011a2.39,2.39,0,0,0,1.718-.862,7.261,7.261,0,0,0,1.224-2.412,7.124,7.124,0,0,0,.534-3.42,10.257,10.257,0,0,0-1.5-3.189,14.635,14.635,0,0,0-1.466-2.44A2.688,2.688,0,0,0,10.76,5.8a1.758,1.758,0,0,0-1.653.862,2.722,2.722,0,0,0,.479,2.285,17.742,17.742,0,0,1,1.781,3.061,7.535,7.535,0,0,1,.2,3.66,13.8,13.8,0,0,0-.5,2.484,1.058,1.058,0,0,0,1.154.862" transform="translate(-9.002 -5.798)" fill="#eaeaea"/>
            </g>
          </g>
        </g>
        <g id="그룹_2190" data-name="그룹 2190" transform="translate(10.236 7.756)" opacity="0.89">
          <g id="그룹_2189" data-name="그룹 2189">
            <g id="그룹_2188" data-name="그룹 2188" clip-path="url(#clip-path-5)">
              <path id="패스_547" data-name="패스 547" d="M12.9,16.6a1.079,1.079,0,0,0,.958-.582,7.693,7.693,0,0,0,.342-1.65,5.873,5.873,0,0,0,.279-2.024,7.755,7.755,0,0,0-.886-1.984c-.313-.645-.474-1.275-.745-1.683A1.236,1.236,0,0,0,11.8,8.08a1.163,1.163,0,0,0-1.025.534,1.746,1.746,0,0,0,.132,1.458c.258.6.716,1.294,1,2.077a6.537,6.537,0,0,1,.355,2.352,9.46,9.46,0,0,0-.1,1.559.722.722,0,0,0,.753.537" transform="translate(-10.663 -8.079)" fill="#ddd"/>
            </g>
          </g>
        </g>
        <path id="패스_548" data-name="패스 548" d="M15.791,12.353a2.455,2.455,0,0,0-.144-1.442c-.21-.34-.639-.467-.925-.89a14.216,14.216,0,0,1-.653-1.6,1.247,1.247,0,0,0-.791-.717.5.5,0,0,0-.565.127.667.667,0,0,0,.076.628c.132.263.362.563.646,1.046s.622,1.151.885,1.677a3.418,3.418,0,0,1,.471,1.388,8.457,8.457,0,0,0-.03,1.293c.093.252.422.188.642-.115a3.173,3.173,0,0,0,.388-1.395" transform="translate(-0.506 -0.307)" fill="#b2b2b2"/>
        <path id="패스_549" data-name="패스 549" d="M14.467,16.315a1.926,1.926,0,0,0-.033-.549.574.574,0,0,0-.244-.377.429.429,0,0,0-.414.007,4.761,4.761,0,0,1-.408.282c-.145.06-.314.031-.448.1a.481.481,0,0,0-.234.406.526.526,0,0,0,.225.408c.124.088.272.11.414.193a4.5,4.5,0,0,0,.434.291.526.526,0,0,0,.45,0,.491.491,0,0,0,.193-.325,2.259,2.259,0,0,0,.065-.437" transform="translate(-0.507 -0.614)" fill="#ef4da2"/>
        <path id="패스_550" data-name="패스 550" d="M12.044,6.127a.93.93,0,0,0-1.394-.8c-.139.082-.258.2-.252.335s.138.288.165.437a1.8,1.8,0,0,1-.052.441.479.479,0,0,0,.168.383.632.632,0,0,0,.427.131.969.969,0,0,0,.44-.144,1.1,1.1,0,0,0,.365-.32.821.821,0,0,0,.133-.458" transform="translate(-0.416 -0.208)" fill="#7676ff"/>
      </g>
    </g>
  </g>
</svg>
