<svg id="그룹_2263" data-name="그룹 2263" xmlns="http://www.w3.org/2000/svg" xmlns:xlink="http://www.w3.org/1999/xlink" width="25.57" height="29.736" viewBox="0 0 25.57 24">
  <defs>
    <clipPath id="clip-path">
      <rect id="사각형_24668" data-name="사각형 24668" width="25.57" height="29.736" fill="none"/>
    </clipPath>
    <clipPath id="clip-path-2">
      <rect id="사각형_24663" data-name="사각형 24663" width="25.57" height="29.737" fill="none"/>
    </clipPath>
    <clipPath id="clip-path-3">
      <path id="패스_586" data-name="패스 586" d="M8.41,1.31A11.553,11.553,0,1,0,12.66.5a11.537,11.537,0,0,0-4.25.81" transform="translate(-1.113 -0.5)" fill="none"/>
    </clipPath>
    <clipPath id="clip-path-4">
      <rect id="사각형_24664" data-name="사각형 24664" width="12.665" height="16.985" fill="none"/>
    </clipPath>
    <clipPath id="clip-path-5">
      <rect id="사각형_24666" data-name="사각형 24666" width="12.665" height="16.182" fill="none"/>
    </clipPath>
  </defs>
  <g id="그룹_2262" data-name="그룹 2262" clip-path="url(#clip-path)">
    <g id="그룹_2250" data-name="그룹 2250" transform="translate(0 0)">
      <g id="그룹_2249" data-name="그룹 2249" clip-path="url(#clip-path-2)">
        <path id="패스_576" data-name="패스 576" d="M24.207,12.047A11.55,11.55,0,1,0,23.4,16.3a11.54,11.54,0,0,0,.811-4.25" transform="translate(-0.042 -0.019)" fill="#fff"/>
        <path id="패스_577" data-name="패스 577" d="M24.207,12.047A11.55,11.55,0,1,0,23.4,16.3,11.54,11.54,0,0,0,24.207,12.047Z" transform="translate(-0.042 -0.019)" fill="none" stroke="#dbdbdb" stroke-linecap="round" stroke-linejoin="round" stroke-width="1"/>
      </g>
    </g>
    <g id="그룹_2259" data-name="그룹 2259" transform="translate(1.071 0.481)">
      <g id="그룹_2258" data-name="그룹 2258" clip-path="url(#clip-path-3)">
        <g id="그룹_2253" data-name="그룹 2253" transform="translate(-1.071 9.966)" opacity="0.38">
          <g id="그룹_2252" data-name="그룹 2252">
            <g id="그룹_2251" data-name="그룹 2251" clip-path="url(#clip-path-4)">
              <path id="패스_578" data-name="패스 578" d="M0,10.857a21.26,21.26,0,0,0,12.664,0V27.842H0Z" transform="translate(0 -10.857)" fill="#c6c6c6"/>
            </g>
          </g>
        </g>
        <g id="그룹_2257" data-name="그룹 2257" transform="translate(11.593 9.776)">
          <g id="그룹_2256" data-name="그룹 2256" clip-path="url(#clip-path-5)">
            <g id="그룹_2255" data-name="그룹 2255">
              <g id="그룹_2254" data-name="그룹 2254" clip-path="url(#clip-path-5)">
                <path id="패스_579" data-name="패스 579" d="M25.825,23.367v1.018c-.479.12-.958.805-1.441.859-.59.067-1.182-.822-1.771-.838s-1.181.835-1.771.838-1.181-.844-1.743-.838-1.1.856-1.69.838-1.235-.905-1.76-.838-.93,1.087-1.567.838a7.2,7.2,0,0,1-.924-.67v-1.02a7.622,7.622,0,0,0,.924.672c.637.246,1.042-.774,1.567-.841s1.17.823,1.76.841,1.127-.835,1.69-.841,1.151.844,1.743.841,1.179-.856,1.771-.841,1.181.908,1.771.841c.482-.053.961-.742,1.441-.859" transform="translate(-13.161 -11.139)" fill="#ddd"/>
                <path id="패스_580" data-name="패스 580" d="M25.825,21.249v1.018c-.479.12-.958.805-1.441.859-.59.067-1.182-.822-1.771-.838s-1.181.835-1.771.838-1.181-.841-1.743-.838-1.1.856-1.69.838-1.235-.905-1.76-.838-.93,1.087-1.567.838a7.2,7.2,0,0,1-.924-.67V21.44a7.572,7.572,0,0,0,.924.669c.637.249,1.042-.774,1.567-.841s1.17.823,1.76.841,1.127-.835,1.69-.841,1.151.844,1.743.841,1.179-.856,1.771-.841,1.181.908,1.771.841c.482-.053.961-.742,1.441-.859" transform="translate(-13.161 -11.059)" fill="#ddd"/>
                <path id="패스_581" data-name="패스 581" d="M25.825,19.131v1.018c-.479.12-.958.805-1.441.859-.59.067-1.182-.82-1.771-.838s-1.181.835-1.771.838-1.181-.841-1.743-.838-1.1.856-1.69.838-1.235-.905-1.76-.838-.93,1.087-1.567.838a7.2,7.2,0,0,1-.924-.67V19.322a7.572,7.572,0,0,0,.924.669c.637.249,1.042-.774,1.567-.838s1.17.823,1.76.838,1.127-.835,1.69-.838,1.151.841,1.743.838,1.179-.856,1.771-.838,1.181.905,1.771.838c.482-.053.961-.739,1.441-.859" transform="translate(-13.161 -10.979)" fill="#ddd"/>
                <path id="패스_582" data-name="패스 582" d="M25.825,17.013v1.018c-.479.12-.958.805-1.441.862-.59.064-1.182-.823-1.771-.841s-1.181.835-1.771.841-1.181-.844-1.743-.841-1.1.856-1.69.841-1.235-.908-1.76-.841-.93,1.087-1.567.841a7.535,7.535,0,0,1-.924-.673V17.2a7.572,7.572,0,0,0,.924.669c.637.249,1.042-.774,1.567-.838s1.17.823,1.76.838,1.127-.835,1.69-.838,1.151.841,1.743.838,1.179-.856,1.771-.838,1.181.905,1.771.838c.482-.053.961-.739,1.441-.859" transform="translate(-13.161 -10.899)" fill="#ddd"/>
                <path id="패스_583" data-name="패스 583" d="M25.825,14.895v1.018c-.479.12-.958.808-1.441.862-.59.064-1.182-.823-1.771-.841s-1.181.835-1.771.841-1.181-.844-1.743-.841-1.1.856-1.69.841-1.235-.908-1.76-.841-.93,1.087-1.567.841a7.535,7.535,0,0,1-.924-.673V15.086a7.274,7.274,0,0,0,.924.669c.637.249,1.042-.771,1.567-.838s1.17.823,1.76.838,1.127-.835,1.69-.838,1.151.844,1.743.838,1.179-.856,1.771-.838,1.181.905,1.771.838c.482-.053.961-.739,1.441-.859" transform="translate(-13.161 -10.819)" fill="#ddd"/>
                <path id="패스_584" data-name="패스 584" d="M25.825,12.777V13.8c-.479.12-.958.808-1.441.862-.59.066-1.182-.823-1.771-.841s-1.181.835-1.771.841-1.181-.844-1.743-.841-1.1.856-1.69.841-1.235-.905-1.76-.841-.93,1.087-1.567.841a7.535,7.535,0,0,1-.924-.673V12.968a7.274,7.274,0,0,0,.924.669c.637.249,1.042-.771,1.567-.838s1.17.823,1.76.838,1.127-.835,1.69-.838,1.151.844,1.743.838,1.179-.856,1.771-.838,1.181.905,1.771.838c.482-.053.961-.739,1.441-.859" transform="translate(-13.161 -10.739)" fill="#ddd"/>
                <path id="패스_585" data-name="패스 585" d="M25.825,10.659v1.02c-.479.118-.958.806-1.441.86-.59.066-1.182-.823-1.771-.841s-1.181.838-1.771.841S19.663,11.7,19.1,11.7s-1.1.856-1.69.841-1.235-.905-1.76-.841-.93,1.087-1.567.841a1.863,1.863,0,0,1-.445-.294,5.429,5.429,0,0,0-.479-.375V10.85a7.274,7.274,0,0,0,.924.669c.637.249,1.042-.771,1.567-.838s1.17.823,1.76.838,1.127-.835,1.69-.838,1.151.844,1.743.838,1.179-.856,1.771-.838,1.181.905,1.771.838c.482-.053.961-.739,1.441-.859" transform="translate(-13.161 -10.659)" fill="#ddd"/>
              </g>
            </g>
          </g>
        </g>
      </g>
    </g>
    <g id="그룹_2261" data-name="그룹 2261" transform="translate(0 0)">
      <g id="그룹_2260" data-name="그룹 2260" clip-path="url(#clip-path-2)">
        <path id="패스_587" data-name="패스 587" d="M11.294,21.376a.335.335,0,0,0,0-.244.3.3,0,0,0-.413-.14.267.267,0,0,0-.129.18.429.429,0,0,0,.02.241.284.284,0,0,0,.15.161.258.258,0,0,0,.217-.013.353.353,0,0,0,.157-.184" transform="translate(-0.405 -0.791)"/>
        <path id="패스_588" data-name="패스 588" d="M4.133,14.065a.472.472,0,0,0-.21-.273.428.428,0,0,0-.582.192.375.375,0,0,0,.008.31.573.573,0,0,0,.225.255.4.4,0,0,0,.306.054.361.361,0,0,0,.231-.2.48.48,0,0,0,.022-.339" transform="translate(-0.125 -0.518)"/>
        <path id="패스_589" data-name="패스 589" d="M8.144,16.578a.325.325,0,0,0,0-.244.3.3,0,0,0-.413-.14.269.269,0,0,0-.128.18.421.421,0,0,0,.019.241.286.286,0,0,0,.151.161.256.256,0,0,0,.217-.013.349.349,0,0,0,.157-.184" transform="translate(-0.287 -0.61)"/>
        <path id="패스_590" data-name="패스 590" d="M9.1,19.366a1.158,1.158,0,0,0-.068-.7.624.624,0,0,0-.451-.392.952.952,0,0,0-.657.221,1.453,1.453,0,0,0-.488.6.753.753,0,0,0,.029.66.88.88,0,0,0,.57.441.873.873,0,0,0,.7-.2,1.094,1.094,0,0,0,.37-.625" transform="translate(-0.278 -0.689)"/>
        <path id="패스_591" data-name="패스 591" d="M5.06,16.944a.527.527,0,0,0,0-.393.474.474,0,0,0-.288-.252.492.492,0,0,0-.374.029.437.437,0,0,0-.2.289A.652.652,0,0,0,4.22,17a.46.46,0,0,0,.242.26.417.417,0,0,0,.347-.023.552.552,0,0,0,.251-.294" transform="translate(-0.157 -0.614)"/>
        <path id="패스_592" data-name="패스 592" d="M11.994,16.424a.8.8,0,0,0-.084-.677,1.111,1.111,0,0,0-.595-.478,1.132,1.132,0,0,0-.767.038.811.811,0,0,0-.471.467.755.755,0,0,0,.106.636,1.375,1.375,0,0,0,.59.5.935.935,0,0,0,.733.051.908.908,0,0,0,.487-.538" transform="translate(-0.379 -0.574)"/>
        <path id="패스_593" data-name="패스 593" d="M8.447,14.017a.9.9,0,0,0-.043-.749,1.012,1.012,0,0,0-1.864.149,1.048,1.048,0,0,0,.043.749.746.746,0,0,0,.514.408,1.343,1.343,0,0,0,.772-.062,1,1,0,0,0,.578-.5" transform="translate(-0.245 -0.48)"/>
      </g>
    </g>
    <text id="BK" transform="translate(6.697 6.855)" fill="#afafaf" font-size="3" font-family="ProductSans-Bold, Product Sans" font-weight="700"><tspan x="0" y="0">BK</tspan></text>
    <text id="HS" transform="translate(13.341 6.855)" fill="#afafaf" font-size="3" font-family="ProductSans-Bold, Product Sans" font-weight="700"><tspan x="0" y="0">HS</tspan></text>
  </g>
</svg>
