<svg id="구성_요소_66_269" data-name="구성 요소 66 – 269" xmlns="http://www.w3.org/2000/svg" width="30" height="30" viewBox="0 0 30 30">
  <circle id="타원_37" data-name="타원 37" cx="15" cy="15" r="15" fill="#858585"/>
  <g id="그룹_456" data-name="그룹 456" transform="translate(6.885 6.547)">
    <g id="그룹_455" data-name="그룹 455" transform="translate(0 0)">
      <path id="패스_199" data-name="패스 199" d="M445.339,277.963h-7.253a4.735,4.735,0,0,0-4.73,4.73v7.049a4.734,4.734,0,0,0,4.73,4.729h7.253a4.734,4.734,0,0,0,4.73-4.729v-7.049A4.734,4.734,0,0,0,445.339,277.963Zm3.2,11.779a3.2,3.2,0,0,1-3.2,3.2h-7.253a3.2,3.2,0,0,1-3.2-3.2v-7.049a3.2,3.2,0,0,1,3.2-3.2h7.253a3.2,3.2,0,0,1,3.2,3.2Z" transform="translate(-433.357 -277.963)" fill="#fff"/>
      <path id="패스_200" data-name="패스 200" d="M446.058,286.119a4.332,4.332,0,1,0,4.331,4.332A4.336,4.336,0,0,0,446.058,286.119Zm0,7.135a2.8,2.8,0,1,1,2.8-2.8A2.805,2.805,0,0,1,446.058,293.254Z" transform="translate(-437.702 -282.197)" fill="#fff"/>
      <path id="패스_201" data-name="패스 201" d="M458.961,283.826a1.019,1.019,0,1,0,1.02,1.018A1.019,1.019,0,0,0,458.961,283.826Z" transform="translate(-446.121 -281.007)" fill="#fff"/>
    </g>
  </g>
</svg>
