<svg id="구성_요소_108_2" data-name="구성 요소 108 – 2" xmlns="http://www.w3.org/2000/svg" width="16.084" height="18.83" viewBox="0 0 16.084 18.83">
  <path id="패스_437" data-name="패스 437" d="M23.572,9.6a4.146,4.146,0,0,1-.911,3.057,3.729,3.729,0,0,1-2.887,1.474,3.834,3.834,0,0,1,.937-2.982A4.422,4.422,0,0,1,23.572,9.6Zm3.3,16.1a13.6,13.6,0,0,0,1.216-2.283,4.15,4.15,0,0,1-.545-7.5,4.766,4.766,0,0,0-3.6-1.91,5.5,5.5,0,0,0-2.127.459,3.938,3.938,0,0,1-1.45.349,4.742,4.742,0,0,1-1.621-.375,5.585,5.585,0,0,0-1.968-.432,4.884,4.884,0,0,0-3.931,2.376c-1.361,2.111-1.129,6.081,1.079,9.462.789,1.21,1.843,2.57,3.222,2.582a2.984,2.984,0,0,0,1.365-.35,4.125,4.125,0,0,1,1.872-.446,3.887,3.887,0,0,1,1.863.442,2.854,2.854,0,0,0,1.341.351C24.966,28.415,26.079,26.908,26.868,25.7Z" transform="translate(-12 -9.6)" fill="#fff" fill-rule="evenodd"/>
</svg>
