<svg id="구성_요소_83_1" data-name="구성 요소 83 – 1" xmlns="http://www.w3.org/2000/svg" width="34.445" height="34.445" viewBox="0 0 34.445 34.445">
  <rect id="사각형_23902" data-name="사각형 23902" width="34.445" height="34.445" rx="17.223" fill="#00bc53"/>
  <path id="패스_354" data-name="패스 354" d="M667.863,2924.509v-.957c0-1.989.01-3.978-.008-5.967,0-.4.1-.533.514-.527,1.422.022,2.845.02,4.268,0,.376,0,.5.112.5.5q-.016,6.792,0,13.584c0,.371-.1.511-.489.507q-2.248-.027-4.5,0a.719.719,0,0,1-.668-.375q-2.262-3.343-4.539-6.677a1.16,1.16,0,0,0-.451-.414c-.008.173-.023.346-.023.52,0,2.141-.011,4.283.007,6.425,0,.4-.116.528-.519.522-1.422-.022-2.845-.019-4.268,0-.381,0-.5-.122-.5-.5q.016-6.792,0-13.584c0-.375.109-.507.493-.5q2.2.027,4.406,0a.826.826,0,0,1,.786.413c1.5,2.233,3.021,4.454,4.537,6.678.1.143.212.275.318.413Z" transform="translate(-647.584 -2906.783)" fill="#fff"/>
</svg>
