<svg id="구성_요소_80_1" data-name="구성 요소 80 – 1" xmlns="http://www.w3.org/2000/svg" width="34.445" height="34.445" viewBox="0 0 34.445 34.445">
  <g id="그룹_2442" data-name="그룹 2442" transform="translate(-1027.369 -661.809)">
    <rect id="사각형_23904" data-name="사각형 23904" width="34.445" height="34.445" rx="17.223" transform="translate(1027.369 661.809)" fill="#e8e8e8"/>
    <path id="패스_163" data-name="패스 163" d="M-987.437,4151.787a11.2,11.2,0,0,0-.177-1.993h-9.175v3.769h5.243a4.483,4.483,0,0,1-1.944,2.939v2.444h3.148a9.5,9.5,0,0,0,2.9-7.16Z" transform="translate(2041.91 -3472.807)" fill="#3e82f1" fill-rule="evenodd"/>
    <path id="패스_164" data-name="패스 164" d="M-1082.942,4197.152a9.307,9.307,0,0,0,6.447-2.359l-3.148-2.445a5.847,5.847,0,0,1-3.3.931,5.806,5.806,0,0,1-5.451-4.017h-3.255v2.523a9.737,9.737,0,0,0,8.706,5.367Z" transform="translate(2128.063 -3508.648)" fill="#32a753" fill-rule="evenodd"/>
  </g>
  <path id="패스_165" data-name="패스 165" d="M-1098.647,4127.649a5.856,5.856,0,0,1-.305-1.852,5.854,5.854,0,0,1,.305-1.85v-2.524h-3.255a9.739,9.739,0,0,0-1.036,4.375,9.744,9.744,0,0,0,1.036,4.376l3.255-2.524Z" transform="translate(1110.949 -4108.844)" fill="#f9bb00" fill-rule="evenodd"/>
  <path id="패스_166" data-name="패스 166" d="M-1082.942,4066.819a5.26,5.26,0,0,1,3.724,1.458l2.794-2.794a9.357,9.357,0,0,0-6.518-2.537,9.738,9.738,0,0,0-8.706,5.366l3.255,2.524a5.806,5.806,0,0,1,5.451-4.017Z" transform="translate(1100.693 -4055.734)" fill="#e74133" fill-rule="evenodd"/>
</svg>
