<svg id="구성_요소_82_1" data-name="구성 요소 82 – 1" xmlns="http://www.w3.org/2000/svg" width="34.445" height="34.445" viewBox="0 0 34.445 34.445">
  <rect id="사각형_23903" data-name="사각형 23903" width="34.445" height="34.445" rx="17.223" fill="#fae100"/>
  <path id="패스_158" data-name="패스 158" d="M-681.409,3223.587a13.584,13.584,0,0,1,8.623,2.693,8.253,8.253,0,0,1,3.18,4.913,7.377,7.377,0,0,1-1.653,6.361,11.286,11.286,0,0,1-6.215,3.764,14.421,14.421,0,0,1-5.314.3.74.74,0,0,0-.457.118c-1.345.9-2.681,1.811-4.019,2.719-.041.027-.079.071-.123.08-.155.029-.363.115-.454.048a.528.528,0,0,1-.1-.445c.117-.539.269-1.07.41-1.6.169-.638.329-1.278.516-1.911.062-.209,0-.29-.178-.383a9.981,9.981,0,0,1-3.913-3.437,7.473,7.473,0,0,1,.6-9.092,11.3,11.3,0,0,1,6.422-3.744C-683.038,3223.743-681.962,3223.664-681.409,3223.587Zm6.1,8.516-.092-.035c0-.5,0-1,0-1.5a.566.566,0,0,0-.591-.625.562.562,0,0,0-.593.6q-.009,2.277,0,4.555a.563.563,0,0,0,.6.589.56.56,0,0,0,.585-.6c.007-.354.02-.71,0-1.064a.665.665,0,0,1,.4-.664c.093.118.18.225.263.333.455.6.9,1.194,1.366,1.785a.541.541,0,0,0,.762.106.531.531,0,0,0,.112-.738c-.057-.092-.127-.175-.192-.262-.511-.674-1.023-1.346-1.541-2.027.076-.084.132-.15.193-.213.452-.454.91-.9,1.357-1.362a.512.512,0,0,0,.023-.743.541.541,0,0,0-.748-.035,2.919,2.919,0,0,0-.235.226Q-674.481,3231.264-675.313,3232.1Zm-7.856-2.156a.784.784,0,0,0-.812.558c-.09.239-.178.48-.267.72-.457,1.227-.918,2.453-1.371,3.682a.548.548,0,0,0,.3.758.556.556,0,0,0,.719-.389,4.411,4.411,0,0,0,.173-.5c.053-.212.174-.275.384-.267.394.014.789,0,1.183,0,.788,0,.788,0,1.074.747a.555.555,0,0,0,.735.4.554.554,0,0,0,.29-.763q-.8-2.207-1.612-4.412A.779.779,0,0,0-683.168,3229.946Zm-3.379,3.322c0-.622.008-1.243,0-1.864,0-.224.074-.3.291-.284s.453,0,.68,0c.395,0,.629-.2.63-.543a.554.554,0,0,0-.623-.559c-.572,0-1.144,0-1.716,0-.523,0-1.046-.008-1.568,0a.549.549,0,0,0-.55.575.541.541,0,0,0,.563.524c.217,0,.434,0,.651,0,.438,0,.438,0,.438.424,0,1.164,0,2.327,0,3.491,0,.453.2.646.62.644.4,0,.585-.2.587-.64C-686.546,3234.452-686.547,3233.86-686.547,3233.269Zm7.515,1.37v-.366q0-1.536,0-3.073c0-.227.011-.455-.005-.68a.587.587,0,0,0-.627-.57.571.571,0,0,0-.581.583q-.01,2.306,0,4.611a.451.451,0,0,0,.441.5c.8.021,1.6.021,2.393,0a.467.467,0,0,0,.448-.5.5.5,0,0,0-.43-.494,1.51,1.51,0,0,0-.294-.015Z" transform="translate(697.973 -3217.178)" fill="#3b1e1e"/>
  <path id="패스_159" data-name="패스 159" d="M-549.047,3356.915h-1.567l.741-2.128.075-.011Z" transform="translate(564.615 -3340.598)" fill="#3b1e1e"/>
</svg>
