<svg id="구성_요소_79_1" data-name="구성 요소 79 – 1" xmlns="http://www.w3.org/2000/svg" width="34.445" height="34.445" viewBox="0 0 34.445 34.445">
  <rect id="사각형_23906" data-name="사각형 23906" width="34.445" height="34.445" rx="17.223" fill="#191919"/>
  <g id="그룹_1473" data-name="그룹 1473" transform="translate(-1067.837 -662.803)">
    <path id="패스_161" data-name="패스 161" d="M247.086,4110.995a6.326,6.326,0,0,1,.383-2.388,4.547,4.547,0,0,1,2.117-2.523,3.5,3.5,0,0,1,2.6-.343c.482.122.948.31,1.422.466.2.065.393.128.593.175a1.5,1.5,0,0,0,.926-.172,8.018,8.018,0,0,1,1.744-.561,4.239,4.239,0,0,1,3.342.8,3.653,3.653,0,0,1,.761.795c.052.072.054.117-.03.171a3.685,3.685,0,0,0-1.685,2.268,3.772,3.772,0,0,0,1.148,3.9,3.874,3.874,0,0,0,.988.662.119.119,0,0,1,.074.177,14.457,14.457,0,0,1-1.285,2.564,6.034,6.034,0,0,1-1.272,1.48,2.029,2.029,0,0,1-1.719.489,7.8,7.8,0,0,1-1.035-.308,4.744,4.744,0,0,0-1.414-.352,3.274,3.274,0,0,0-1.109.169c-.455.143-.9.3-1.356.454a1.767,1.767,0,0,1-1.524-.2,5.182,5.182,0,0,1-1.514-1.445,11.28,11.28,0,0,1-1.585-3.072,10.191,10.191,0,0,1-.564-2.739C247.078,4111.311,247.086,4111.153,247.086,4110.995Z" transform="translate(830.754 -3431.521)" fill="#fff"/>
    <path id="패스_162" data-name="패스 162" d="M564.162,3921.016a3.46,3.46,0,0,1,.617-1.9,3.875,3.875,0,0,1,2.171-1.645,5.813,5.813,0,0,1,.649-.132c.128-.022.152,0,.161.132a3.64,3.64,0,0,1-.437,1.954,3.877,3.877,0,0,1-1.568,1.635,2.776,2.776,0,0,1-1.4.354c-.156,0-.183-.028-.189-.184C564.16,3921.159,564.162,3921.087,564.162,3921.016Z" transform="translate(520.824 -3247.51)" fill="#fff"/>
  </g>
</svg>
