<svg id="원_체크박스" data-name="원 체크박스" xmlns="http://www.w3.org/2000/svg" width="24" height="24" viewBox="0 0 24 24">
  <rect id="Boundary" width="24" height="24" fill="none"/>
  <g id="그룹_1841" data-name="그룹 1841" transform="translate(-737 -511)">
    <g id="Path" transform="translate(740 514)" fill="none">
      <path d="M9,0a9,9,0,1,0,9,9A9,9,0,0,0,9,0Z" stroke="none"/>
      <path d="M 9 1 C 4.588789939880371 1 1 4.588789939880371 1 9 C 1 13.41121006011963 4.588789939880371 17 9 17 C 13.41121006011963 17 17 13.41121006011963 17 9 C 17 4.588789939880371 13.41121006011963 1 9 1 M 9 0 C 13.9680004119873 0 18 4.031999588012695 18 9 C 18 13.9680004119873 13.9680004119873 18 9 18 C 4.031999588012695 18 0 13.9680004119873 0 9 C 0 4.031999588012695 4.031999588012695 0 9 0 Z" stroke="none" fill="#c3c3c3"/>
    </g>
    <path id="Path-2" data-name="Path" d="M9.332,0,4.026,5.306,1.135,2.424,0,3.559,4.026,7.585l6.441-6.441Z" transform="translate(743.746 519.188)" fill="#c3c3c3"/>
  </g>
</svg>
