<svg id="구성_요소_68_269" data-name="구성 요소 68 – 269" xmlns="http://www.w3.org/2000/svg" width="30" height="30" viewBox="0 0 30 30">
  <circle id="타원_36" data-name="타원 36" cx="15" cy="15" r="15" fill="#858585"/>
  <path id="패스_198" data-name="패스 198" d="M-2893.019,1708.6c-1.5.011-2.926-.014-4.354-.074-.583-.024-1.165-.067-1.746-.118a5.909,5.909,0,0,1-.87-.139,2.5,2.5,0,0,1-1.553-1.1,2.227,2.227,0,0,1-.3-.84,18.422,18.422,0,0,1-.251-3.161c0-.408-.021-.816-.01-1.223.019-.738.036-1.476.089-2.212a14.625,14.625,0,0,1,.2-1.472,2.215,2.215,0,0,1,1.115-1.527,2.637,2.637,0,0,1,1.018-.35c.706-.1,1.416-.146,2.128-.178,1.367-.064,2.734-.1,4.1-.089,1,.005,1.993.014,2.989.035.743.016,1.486.046,2.229.085a15.8,15.8,0,0,1,2.018.2,2.194,2.194,0,0,1,1.634,1.2,2.365,2.365,0,0,1,.174.479,9.674,9.674,0,0,1,.241,1.575,26.746,26.746,0,0,1,.127,2.768c-.006.758-.038,1.518-.091,2.274a10.886,10.886,0,0,1-.261,1.854,2.208,2.208,0,0,1-.867,1.262,2.575,2.575,0,0,1-1.163.477,18.375,18.375,0,0,1-2.05.182C-2890.007,1708.578-2891.546,1708.609-2893.019,1708.6Zm-1.776-3.461c.065-.033.121-.056.172-.087l1.713-1.054,2.478-1.526c.046-.028.086-.066.148-.114-.072-.052-.122-.094-.177-.128l-3.018-1.859c-.382-.235-.763-.472-1.146-.705-.053-.033-.1-.089-.2-.052,0,.073-.011.148-.011.224q0,2.515,0,5.031a1.481,1.481,0,0,0,0,.155A.7.7,0,0,0-2894.8,1705.139Z" transform="translate(2907.873 -1687.143)" fill="#fff"/>
</svg>
