<svg xmlns="http://www.w3.org/2000/svg" width="118.116" height="18.877" viewBox="0 0 118.116 18.877">
  <g id="그룹_2852" data-name="그룹 2852" transform="translate(-9306.895 20815.074)">
    <path id="패스_1" data-name="패스 1" d="M139.123,250.222,130.5,235.374l-4.375-.014,10.8,18.652Z" transform="translate(9180.895 -21050.359)" fill="none" stroke="#00a1ed" stroke-width="0.15" stroke-dasharray="1"/>
    <path id="패스_3" data-name="패스 3" d="M163.244,248.66c-.578-1.023-.951-1.829-1.527-2.854l-.631-1.118a6.406,6.406,0,0,1,5.5-9.279q1.819,0,3.638,0h.736l-1.98,3.485c-.357,0-1.915,0-2.276.008a2.916,2.916,0,0,0-2.4,4.407l.563.995.448.793Z" transform="translate(9157.63 -21050.391)" fill="#c00020"/>
    <path id="패스_4" data-name="패스 4" d="M132.878,239.519c-.948-1.644-1.536-2.589-2.423-4.115h-4.4l10.82,18.653q.611-1.05,1.219-2.1l.978-1.688Q135.982,244.89,132.878,239.519Z" transform="translate(9180.945 -21050.391)" fill="#c00020"/>
    <path id="패스_5" data-name="패스 5" d="M438.294,257.859h0a4.859,4.859,0,0,0-1.155-3.128,4.8,4.8,0,0,0-3.643-1.67h-4.672v9.6H433.5a4.8,4.8,0,0,0,3.643-1.67,4.859,4.859,0,0,0,1.155-3.128h0Zm-1.873,0a2.94,2.94,0,0,1-.7,1.909,2.9,2.9,0,0,1-2.08,1.019H430.7v-5.857h2.943a2.9,2.9,0,0,1,2.08,1.019,2.939,2.939,0,0,1,.7,1.909Z" transform="translate(8975.348 -21062.381)" fill="#fff"/>
    <path id="패스_6" data-name="패스 6" d="M482.244,265.417a.959.959,0,0,0,0,1.225.913.913,0,0,0,.627.323h2.42v-1.871h-2.42A.911.911,0,0,0,482.244,265.417Z" transform="translate(8939.229 -21070.551)" fill="#fff"/>
    <path id="패스_7" data-name="패스 7" d="M477.607,253.061h-2.827a4.8,4.8,0,0,0-3.643,1.67,4.857,4.857,0,0,0-1.154,3.128h0a4.857,4.857,0,0,0,1.154,3.128,4.8,4.8,0,0,0,3.643,1.67h2.826v-1.87h-2.969a2.9,2.9,0,0,1-2.081-1.019,2.94,2.94,0,0,1-.7-1.909h0a2.94,2.94,0,0,1,.7-1.909,2.9,2.9,0,0,1,2.081-1.019h2.969Z" transform="translate(8947.403 -21062.381)" fill="#fff"/>
    <path id="패스_8" data-name="패스 8" d="M314.015,265.417a.959.959,0,0,0,0,1.225.914.914,0,0,0,.627.323h2.42v-1.871h-2.42A.912.912,0,0,0,314.015,265.417Z" transform="translate(9053.464 -21070.551)" fill="#fff"/>
    <path id="패스_9" data-name="패스 9" d="M309.377,253.061h-2.826a4.8,4.8,0,0,0-3.643,1.67,4.858,4.858,0,0,0-1.155,3.128h0a4.858,4.858,0,0,0,1.155,3.128,4.8,4.8,0,0,0,3.643,1.67h2.825v-1.87h-2.969a2.9,2.9,0,0,1-2.08-1.019,2.94,2.94,0,0,1-.7-1.909h0a2.939,2.939,0,0,1,.7-1.909,2.9,2.9,0,0,1,2.08-1.019h2.969Z" transform="translate(9061.639 -21062.381)" fill="#fff"/>
    <path id="패스_10" data-name="패스 10" d="M405.884,257.859h0a4.858,4.858,0,0,0-1.155-3.128,4.8,4.8,0,0,0-3.643-1.67h-4.672v9.6h4.672a4.8,4.8,0,0,0,3.643-1.67,4.858,4.858,0,0,0,1.155-3.128h0Zm-1.872,0a2.941,2.941,0,0,1-.7,1.909,2.9,2.9,0,0,1-2.08,1.019h-2.943v-5.857h2.943a2.9,2.9,0,0,1,2.08,1.019,2.94,2.94,0,0,1,.7,1.909Z" transform="translate(8997.359 -21062.381)" fill="#fff"/>
    <path id="패스_11" data-name="패스 11" d="M344.571,259.132a2.954,2.954,0,0,1-.628.943,2.856,2.856,0,0,1-4.085,0,2.955,2.955,0,0,1-.628-.943,3.039,3.039,0,0,1,0-2.322,2.957,2.957,0,0,1,.628-.944,2.856,2.856,0,0,1,4.085,0,2.958,2.958,0,0,1,.628.943l.006.015,1.7-.7a4.8,4.8,0,1,0,.016,3.661l-1.692-.712Z" transform="translate(9037.593 -21062.457)" fill="#fff"/>
    <rect id="사각형_3" data-name="사각형 3" width="1.873" height="9.598" transform="translate(9414.577 -20809.32)" fill="#fff"/>
    <rect id="사각형_4" data-name="사각형 4" width="1.873" height="9.598" transform="translate(9350.528 -20809.32)" fill="#fff"/>
    <path id="패스_12" data-name="패스 12" d="M368.739,253.061h0l-4.735,9.6h1.872l2.862-5.8,2.862,5.8h1.873Z" transform="translate(9019.367 -21062.381)" fill="#fff"/>
    <path id="패스_13" data-name="패스 13" d="M207.259,262.678h0l-4.735-9.6H204.4l2.862,5.8,2.862-5.8h1.873Z" transform="translate(9129.02 -21062.395)" fill="#fff"/>
    <path id="패스_14" data-name="패스 14" d="M277.824,259.132a2.954,2.954,0,0,1-.628.943,2.857,2.857,0,0,1-4.085,0,2.954,2.954,0,0,1-.627-.943,3.04,3.04,0,0,1,0-2.322,2.956,2.956,0,0,1,.627-.944,2.856,2.856,0,0,1,4.085,0,2.958,2.958,0,0,1,.628.943l.006.015,1.7-.7a4.8,4.8,0,1,0,.016,3.661l-1.692-.712Z" transform="translate(9082.917 -21062.457)" fill="#fff"/>
    <path id="패스_15" data-name="패스 15" d="M237.251,254.485h0c-.041-.039-.083-.078-.125-.116l0,0q-.063-.056-.128-.11l0,0c-.043-.035-.087-.07-.131-.1l0,0-.066-.049h0l-.067-.049-.006,0-.066-.046h0l-.068-.046-.007,0-.067-.043h0l-.07-.043-.008-.005-.067-.04,0,0-.07-.04-.01-.005-.068-.037,0,0-.071-.038-.011-.005-.068-.034,0,0-.073-.035-.012-.005-.069-.031,0,0-.073-.032-.013-.005-.07-.029,0,0-.074-.029-.014-.005-.071-.026,0,0-.075-.026-.015,0-.071-.023,0,0-.076-.023-.016,0-.072-.021h0l-.077-.02-.017,0-.073-.018h0l-.077-.017-.018,0-.074-.015h0l-.078-.014-.018,0-.076-.012h0l-.079-.012-.019,0-.077-.01h0l-.08-.008-.019,0-.078-.007h0l-.081-.005h-.02l-.08,0h0l-.081,0h-.2l-.081,0h0l-.08,0h-.02l-.081.005h0l-.078.007-.02,0-.08.008h0l-.077.01-.019,0-.079.012h0l-.075.012-.018,0-.078.014h0l-.074.015-.017,0-.077.017h0l-.073.018-.017,0-.077.02h0l-.072.021-.016,0-.076.023,0,0-.071.023-.015,0-.075.026,0,0-.07.026-.014.005-.074.029,0,0-.07.029-.013.005-.073.032,0,0-.069.031-.012.005-.072.035,0,0-.069.034-.011.005-.071.038,0,0-.068.037-.009.005-.071.04,0,0-.067.04-.008.005-.07.043h0l-.067.043-.007,0-.069.046h0l-.066.046-.006,0-.067.049h0l-.065.049,0,0q-.067.051-.131.1l0,0q-.065.054-.128.11l0,0c-.043.038-.084.077-.125.116h0a4.853,4.853,0,0,0-1.1,5.373l0,.011c.022.05.044.1.067.151l0,.01c.024.05.047.1.073.148l.005.01c.025.049.051.1.077.145l.006.01c.027.048.054.095.082.142l.006.009.043.07h0l.044.067.006.009.046.068,0,0c.014.022.03.043.045.064l.006.009.048.066,0,0,.046.061.006.008.05.064,0,.005.047.059.006.007.052.062.006.007.049.057.006.006.054.059.007.008.051.054.005.005.056.057.008.008.053.053,0,0,.058.055.009.009.055.051,0,0,.06.053.01.009.058.049,0,0,.061.05.011.009.061.048h0l.063.048.012.009c.042.032.085.063.128.093l.013.009q.065.045.132.088l.013.008c.044.029.089.056.135.083l.014.008.068.04h0l.067.037.014.008.069.037,0,0,.066.033.014.007.071.034.007,0,.065.03.015.007.071.031.01,0,.065.027.015.006.073.029.012,0,.065.024.014.005.074.026.013,0,.065.022.014,0,.075.023.014,0,.066.019.014,0,.076.02.016,0,.067.016.013,0,.076.017.017,0,.068.014.012,0,.078.014.017,0,.07.012.011,0,.079.012.019,0,.072.009h.009l.08.009.019,0,.075.006h.007l.081.006h.02l.078,0h0l.082,0h.2l.082,0h0l.079,0h.02l.081-.006h.007l.075-.006.019,0,.08-.009h.009l.072-.009.019,0,.079-.012.011,0,.07-.012.017,0,.078-.014.012,0,.068-.014.017,0,.076-.017.013,0,.067-.016.016,0,.076-.02.014,0,.066-.019.014,0,.075-.023.014,0,.065-.022.013,0,.074-.026.015-.005.065-.024.012,0,.073-.029.014-.006.065-.027.009,0,.072-.031.015-.007.065-.03.007,0,.071-.034.014-.007.066-.033,0,0,.069-.037.014-.008.067-.037h0l.068-.04.014-.008c.045-.027.09-.054.134-.083l.013-.008c.044-.028.088-.057.131-.088l.013-.009c.043-.03.086-.061.128-.093l.012-.009.064-.048h0l.061-.048.011-.009.061-.05,0,0,.058-.049.01-.009.059-.053,0,0,.055-.051.009-.009.058-.055,0,0,.053-.053.008-.008.056-.057.005-.005.051-.054.007-.008.054-.059.005-.006.049-.057.006-.007.052-.062.006-.007.048-.059,0-.005.049-.064.006-.008.046-.061,0,0,.048-.066.006-.009.045-.064,0,0c.016-.022.031-.045.046-.068l.006-.009.044-.067h0l.044-.07.006-.009c.028-.047.056-.094.083-.142l.005-.01c.027-.048.052-.1.078-.145l.005-.01c.025-.049.049-.1.073-.148l0-.01c.023-.05.046-.1.067-.151l0-.011a4.853,4.853,0,0,0-1.1-5.373Zm-.561,4.584h0l-.025.062a2.956,2.956,0,0,1-.628.943,2.856,2.856,0,0,1-4.085,0,2.965,2.965,0,0,1-.628-.943l-.025-.062h0a3.039,3.039,0,0,1,.019-2.246h0l.006-.015a2.969,2.969,0,0,1,.628-.943,2.856,2.856,0,0,1,4.085,0,2.96,2.96,0,0,1,.628.943l.006.015h0a3.043,3.043,0,0,1,.019,2.246Z" transform="translate(9110.865 -21062.457)" fill="#fff"/>
  </g>
</svg>
