<svg id="그룹_711" data-name="그룹 711" xmlns="http://www.w3.org/2000/svg" width="141.349" height="22.342" viewBox="0 0 141.349 22.342">
  <g id="그룹_703" data-name="그룹 703">
    <g id="그룹_702" data-name="그룹 702" transform="translate(0 0)">
      <path id="패스_273" data-name="패스 273" d="M239.646,298.242c-.692-1.225-1.138-2.19-1.829-3.418l-.755-1.339a7.671,7.671,0,0,1,6.583-11.111q2.178,0,4.357,0h.881l-2.371,4.173c-.427,0-2.293,0-2.725.009a3.492,3.492,0,0,0-2.873,5.276q.338.6.674,1.191l.537.949Z" transform="translate(-223.035 -282.37)" fill="#c00020"/>
      <path id="패스_274" data-name="패스 274" d="M201.85,287.3c-1.136-1.969-1.839-3.1-2.9-4.928h-5.267l12.956,22.342q.732-1.258,1.46-2.519l1.171-2.021Q205.567,293.732,201.85,287.3Z" transform="translate(-193.682 -282.37)" fill="#c00020"/>
    </g>
  </g>
  <g id="그룹_710" data-name="그룹 710" transform="translate(29.397 6.788)">
    <path id="패스_275" data-name="패스 275" d="M580.21,309.995h0a5.818,5.818,0,0,0-1.383-3.745,5.744,5.744,0,0,0-4.362-2h-5.594v11.492h5.594a5.744,5.744,0,0,0,4.362-2A5.818,5.818,0,0,0,580.21,310h0Zm-2.242,0a3.519,3.519,0,0,1-.839,2.286,3.473,3.473,0,0,1-2.491,1.22h-3.524V306.49h3.524a3.473,3.473,0,0,1,2.491,1.22,3.518,3.518,0,0,1,.839,2.286Z" transform="translate(-481.872 -304.25)"/>
    <g id="그룹_705" data-name="그룹 705" transform="translate(102.823 0)">
      <g id="그룹_704" data-name="그룹 704" transform="translate(4.629 4.626)">
        <path id="패스_276" data-name="패스 276" d="M635.06,319.548a1.148,1.148,0,0,0,0,1.467,1.091,1.091,0,0,0,.751.387h2.9v-2.24h-2.9A1.091,1.091,0,0,0,635.06,319.548Z" transform="translate(-634.795 -319.161)"/>
      </g>
      <path id="패스_277" data-name="패스 277" d="M629,304.25H625.62a5.744,5.744,0,0,0-4.362,2,5.816,5.816,0,0,0-1.383,3.745h0a5.816,5.816,0,0,0,1.383,3.745,5.744,5.744,0,0,0,4.362,2H629V313.5h-3.556a3.472,3.472,0,0,1-2.491-1.22,3.521,3.521,0,0,1-.84-2.286h0a3.521,3.521,0,0,1,.84-2.286,3.472,3.472,0,0,1,2.491-1.22H629Z" transform="translate(-619.875 -304.25)"/>
    </g>
    <g id="그룹_707" data-name="그룹 707" transform="translate(38.148 0)">
      <g id="그룹_706" data-name="그룹 706" transform="translate(4.629 4.626)">
        <path id="패스_278" data-name="패스 278" d="M426.591,319.548a1.148,1.148,0,0,0,0,1.467,1.091,1.091,0,0,0,.751.387h2.9v-2.24h-2.9A1.091,1.091,0,0,0,426.591,319.548Z" transform="translate(-426.326 -319.161)"/>
      </g>
      <path id="패스_279" data-name="패스 279" d="M420.535,304.25H417.15a5.744,5.744,0,0,0-4.362,2,5.814,5.814,0,0,0-1.383,3.745h0a5.814,5.814,0,0,0,1.383,3.745,5.744,5.744,0,0,0,4.362,2h3.383V313.5h-3.556a3.473,3.473,0,0,1-2.491-1.22,3.521,3.521,0,0,1-.839-2.286h0a3.521,3.521,0,0,1,.839-2.286,3.473,3.473,0,0,1,2.491-1.22h3.556Z" transform="translate(-411.405 -304.25)"/>
    </g>
    <path id="패스_280" data-name="패스 280" d="M540.048,309.995h0a5.816,5.816,0,0,0-1.383-3.745,5.744,5.744,0,0,0-4.362-2h-5.594v11.492H534.3a5.744,5.744,0,0,0,4.362-2A5.816,5.816,0,0,0,540.048,310h0Zm-2.242,0a3.519,3.519,0,0,1-.839,2.286,3.473,3.473,0,0,1-2.491,1.22h-3.524V306.49h3.524a3.473,3.473,0,0,1,2.491,1.22,3.519,3.519,0,0,1,.839,2.286Z" transform="translate(-454.169 -304.25)"/>
    <path id="패스_281" data-name="패스 281" d="M464.156,311.523a3.538,3.538,0,0,1-.751,1.129,3.42,3.42,0,0,1-4.891,0,3.545,3.545,0,0,1-.752-1.129,3.643,3.643,0,0,1,0-2.781,3.55,3.55,0,0,1,.752-1.13,3.421,3.421,0,0,1,4.891,0,3.545,3.545,0,0,1,.751,1.129l.007.019,2.03-.843a5.748,5.748,0,1,0,.019,4.384l-2.026-.853Z" transform="translate(-403.526 -304.344)"/>
    <rect id="사각형_23889" data-name="사각형 23889" width="2.242" height="11.492" transform="translate(99.459)" fill="#1a1311"/>
    <g id="그룹_708" data-name="그룹 708" transform="translate(22.738)">
      <rect id="사각형_23890" data-name="사각형 23890" width="2.243" height="11.492" fill="#1a1311"/>
    </g>
    <path id="패스_282" data-name="패스 282" d="M494.216,304.25h0l-5.669,11.492h2.242l3.427-6.947,3.427,6.947h2.242Z" transform="translate(-426.466 -304.25)"/>
    <path id="패스_283" data-name="패스 283" d="M294.11,315.766h0l-5.67-11.492h2.242l3.427,6.947,3.427-6.947h2.242Z" transform="translate(-288.44 -304.267)"/>
    <g id="그룹_709" data-name="그룹 709" transform="translate(26.101 0.042)">
      <path id="패스_284" data-name="패스 284" d="M381.443,311.523a3.538,3.538,0,0,1-.751,1.129,3.42,3.42,0,0,1-4.891,0,3.533,3.533,0,0,1-.751-1.129,3.639,3.639,0,0,1,0-2.781,3.537,3.537,0,0,1,.751-1.13,3.421,3.421,0,0,1,4.891,0,3.545,3.545,0,0,1,.751,1.129l.007.019,2.03-.843a5.747,5.747,0,1,0,.019,4.384l-2.026-.853C381.463,311.474,381.453,311.5,381.443,311.523Z" transform="translate(-372.575 -304.386)"/>
    </g>
    <path id="패스_285" data-name="패스 285" d="M331.14,305.96h0q-.074-.071-.15-.139l0,0q-.075-.068-.154-.132l0,0c-.052-.042-.1-.084-.156-.125l-.005,0-.079-.059h0l-.08-.059-.007,0-.079-.056h0l-.082-.056-.008-.005-.08-.052h0l-.084-.052-.01-.006-.081-.048,0,0-.084-.048-.011-.006-.082-.045,0,0-.086-.045-.013-.007-.082-.041,0,0-.087-.042-.014-.007-.083-.038,0,0-.088-.038-.016-.007-.083-.034,0,0-.089-.035-.017-.007-.084-.031-.006,0-.089-.031-.018-.006-.085-.028-.006,0-.091-.028-.019-.006-.087-.025-.005,0-.092-.024-.02,0-.087-.021-.005,0-.093-.021-.021,0-.089-.018h0l-.094-.017-.022,0-.091-.015h0l-.094-.014-.023,0-.092-.012h0l-.1-.01-.023,0-.094-.008h0l-.1-.007-.024,0-.1,0h0l-.1,0h-.245l-.1,0h0l-.1,0-.024,0-.1.007h0l-.094.008-.024,0-.1.01h0l-.092.012-.023,0-.095.014h0l-.091.015-.022,0-.094.017h0l-.089.018-.021,0-.092.021-.006,0-.087.021-.02,0-.092.024-.005,0-.087.025-.019.006-.091.028-.006,0-.086.028-.018.006-.089.031-.006,0-.084.031-.017.007-.089.035-.005,0-.083.034-.016.007-.088.038,0,0-.083.038-.015.007-.086.042,0,0-.082.041-.013.007-.085.045,0,0-.082.045-.011.006-.084.048,0,0-.081.048-.01.006-.083.052h0l-.08.052-.008.005-.082.056h0l-.079.056-.007,0-.081.059h0l-.078.059-.005,0q-.08.061-.157.125l0,0c-.051.043-.1.087-.153.132l0,0c-.051.046-.1.092-.15.139h0a5.81,5.81,0,0,0-1.316,6.434l.005.012q.039.091.08.181l.006.012c.028.06.057.118.087.177l.006.012c.03.058.061.116.093.173l.007.012c.032.057.065.114.1.169l.007.011.052.084h0l.052.081.007.011c.018.027.036.054.055.081l0,0,.054.077.007.01.057.079,0,.005.055.073.007.01.06.076.005.007.057.07.008.009.062.074.007.008.059.068.007.008.065.071.009.009.061.065.007.007.067.069.01.009.064.063.005.005.069.066.011.01.066.061,0,0,.071.063.012.011.07.059,0,0,.074.06.013.011.073.058h0l.076.058.014.01q.075.057.153.111l.015.01q.078.054.157.105l.016.01c.053.034.107.067.161.1l.016.01.082.047h0l.08.044.017.009.083.044.006,0,.079.04.017.009.084.041.009,0,.078.036.018.008.086.038.011,0,.078.032.018.007.087.034.014,0,.078.029.017.006.088.031.016.005.078.026.017.006.09.028.017,0,.079.023.017,0,.091.024.019,0,.081.02.016,0,.092.021.02,0,.082.017.015,0,.093.018.021,0,.084.014.013,0,.094.014.022,0,.087.011h.011l.1.01.023,0,.09.008h.008l.1.007h.024l.094,0h0l.1,0h.245l.1,0h0l.094,0h.024l.1-.007h.008l.09-.008.023,0,.1-.01h.011l.087-.011.022,0,.094-.014.013,0,.084-.014.021,0,.093-.018.015,0,.082-.017.02,0,.092-.021.016,0,.08-.02.019,0,.091-.024.016,0,.079-.023.017,0,.09-.028.017-.006.078-.026.016-.005.088-.031.018-.006.078-.029.014,0,.087-.034.017-.007.078-.032.011,0,.086-.038.018-.008.078-.036.009,0,.085-.041.017-.009.079-.04.006,0,.083-.044.017-.009.08-.044h0l.082-.047.016-.01c.054-.032.108-.065.161-.1l.016-.01q.08-.051.158-.105l.015-.01c.052-.036.1-.073.154-.111l.014-.01.076-.058h0l.073-.058.013-.011.074-.06,0,0,.069-.059.012-.011.071-.063,0,0,.066-.061.011-.01.069-.066.006-.005.064-.063.009-.009.067-.069.007-.007.061-.065.008-.009.065-.071.007-.008.059-.068.007-.008.062-.074.007-.009.057-.07.006-.007.059-.076.008-.01.055-.073,0-.005.057-.079.007-.01.054-.077,0,0c.019-.027.037-.054.055-.081l.007-.011c.018-.027.035-.054.052-.081h0l.052-.084.007-.011q.051-.083.1-.169l.006-.012q.048-.086.093-.173l.006-.012q.045-.087.087-.177l.006-.012c.028-.06.055-.12.08-.181l.005-.012a5.81,5.81,0,0,0-1.316-6.434Zm-.672,5.489h0l-.03.074a3.539,3.539,0,0,1-.751,1.129,3.42,3.42,0,0,1-4.891,0,3.544,3.544,0,0,1-.751-1.129l-.03-.074h0a3.637,3.637,0,0,1,.023-2.688h0l.007-.019a3.551,3.551,0,0,1,.751-1.129,3.421,3.421,0,0,1,4.891,0,3.546,3.546,0,0,1,.751,1.129l.007.019h0a3.642,3.642,0,0,1,.023,2.688Z" transform="translate(-311.292 -304.344)"/>
  </g>
</svg>
