<svg id="그룹_697" data-name="그룹 697" xmlns="http://www.w3.org/2000/svg" width="37.264" height="32.088" viewBox="0 0 37.264 32.088">
  <g id="그룹_350" data-name="그룹 350" transform="translate(0 0.011)">
    <path id="패스_2" data-name="패스 2" d="M0,0C2.589,0,4.912-.02,7.235.035c.255.008.572.41.742.7q6.006,10.237,11.98,20.494c.723,1.237,1.461,2.462,2.129,3.729a1.368,1.368,0,0,1,.058,1.105c-1.071,1.944-2.207,3.849-3.467,6.013C12.433,21.348,6.276,10.782,0,0" transform="translate(0 0.001)" fill="#c00020"/>
  </g>
  <g id="그룹_351" data-name="그룹 351" transform="translate(19.037)">
    <path id="패스_3" data-name="패스 3" d="M3.8,16.806c-1.368-2.338-2.725-4.471-3.9-6.705A10.976,10.976,0,0,1,9.6-5.863c2.357-.008,4.715,0,7.3,0-1.136,1.99-2.133,3.787-3.2,5.546-.143.236-.638.34-.974.356C11.528.1,10.3-.016,9.12.158A4.984,4.984,0,0,0,5.468,7.771c.479.854,1.032,1.666,1.5,2.527a1.11,1.11,0,0,1,.081.893c-1.024,1.84-2.1,3.652-3.246,5.615" transform="translate(1.327 5.867)" fill="#c00020"/>
  </g>
</svg>
