<svg xmlns="http://www.w3.org/2000/svg" width="116.457" height="12" viewBox="0 0 116.457 12">
  <g id="그룹_711" data-name="그룹 711" transform="translate(-193.682 -289.158)">
    <g id="그룹_710" data-name="그룹 710" transform="translate(193.682 289.158)">
      <path id="패스_275" data-name="패스 275" d="M580.21,310.227h0a6.2,6.2,0,0,0-1.383-3.9,5.653,5.653,0,0,0-4.362-2.081h-5.594v11.956h5.594a5.653,5.653,0,0,0,4.362-2.081,6.2,6.2,0,0,0,1.383-3.9h0Zm-2.242,0a3.75,3.75,0,0,1-.839,2.378,3.426,3.426,0,0,1-2.491,1.269h-3.524v-7.3h3.524a3.425,3.425,0,0,1,2.491,1.269,3.75,3.75,0,0,1,.839,2.378Z" transform="translate(-477.367 -304.25)" fill="#191919"/>
      <g id="그룹_705" data-name="그룹 705" transform="translate(107.327 0)">
        <g id="그룹_704" data-name="그룹 704" transform="translate(4.629 4.858)">
          <path id="패스_276" data-name="패스 276" d="M635.06,319.548a1.148,1.148,0,0,0,0,1.467,1.091,1.091,0,0,0,.751.387h2.9v-2.24h-2.9A1.091,1.091,0,0,0,635.06,319.548Z" transform="translate(-634.795 -319.161)" fill="#191919"/>
        </g>
        <path id="패스_277" data-name="패스 277" d="M629,304.25H625.62a5.653,5.653,0,0,0-4.362,2.081,6.2,6.2,0,0,0-1.383,3.9h0a6.2,6.2,0,0,0,1.383,3.9,5.653,5.653,0,0,0,4.362,2.081H629v-2.33h-3.556a3.424,3.424,0,0,1-2.491-1.269,3.753,3.753,0,0,1-.84-2.378h0a3.752,3.752,0,0,1,.84-2.378,3.424,3.424,0,0,1,2.491-1.269H629Z" transform="translate(-619.875 -304.25)" fill="#191919"/>
      </g>
      <g id="그룹_707" data-name="그룹 707" transform="translate(39.819 0)">
        <g id="그룹_706" data-name="그룹 706" transform="translate(4.629 4.858)">
          <path id="패스_278" data-name="패스 278" d="M426.591,319.548a1.148,1.148,0,0,0,0,1.467,1.091,1.091,0,0,0,.751.387h2.9v-2.24h-2.9A1.091,1.091,0,0,0,426.591,319.548Z" transform="translate(-426.326 -319.161)" fill="#191919"/>
        </g>
        <path id="패스_279" data-name="패스 279" d="M420.535,304.25H417.15a5.653,5.653,0,0,0-4.362,2.081,6.2,6.2,0,0,0-1.383,3.9h0a6.2,6.2,0,0,0,1.383,3.9,5.653,5.653,0,0,0,4.362,2.081h3.383v-2.33h-3.556a3.426,3.426,0,0,1-2.491-1.269,3.753,3.753,0,0,1-.839-2.378h0a3.752,3.752,0,0,1,.839-2.378,3.425,3.425,0,0,1,2.491-1.269h3.556Z" transform="translate(-411.405 -304.25)" fill="#191919"/>
      </g>
      <path id="패스_280" data-name="패스 280" d="M540.048,310.227h0a6.2,6.2,0,0,0-1.383-3.9,5.654,5.654,0,0,0-4.362-2.081h-5.594v11.956H534.3a5.654,5.654,0,0,0,4.362-2.081,6.2,6.2,0,0,0,1.383-3.9h0Zm-2.242,0a3.751,3.751,0,0,1-.839,2.378,3.426,3.426,0,0,1-2.491,1.269h-3.524v-7.3h3.524a3.425,3.425,0,0,1,2.491,1.269,3.75,3.75,0,0,1,.839,2.378Z" transform="translate(-450.832 -304.25)" fill="#191919"/>
      <path id="패스_281" data-name="패스 281" d="M464.156,311.812a3.7,3.7,0,0,1-.751,1.175,3.328,3.328,0,0,1-4.891,0,3.7,3.7,0,0,1-.752-1.175,3.932,3.932,0,0,1,0-2.893,3.708,3.708,0,0,1,.752-1.175,3.328,3.328,0,0,1,4.891,0,3.7,3.7,0,0,1,.751,1.175l.007.019,2.03-.877a5.679,5.679,0,0,0-5.234-3.674,5.987,5.987,0,0,0,0,11.958,5.683,5.683,0,0,0,5.253-3.722l-2.026-.888Z" transform="translate(-401.218 -304.344)" fill="#191919"/>
      <rect id="사각형_23889" data-name="사각형 23889" width="2.242" height="11.956" transform="translate(103.964)" fill="#191919"/>
      <g id="그룹_708" data-name="그룹 708" transform="translate(23.672)">
        <rect id="사각형_23890" data-name="사각형 23890" width="2.243" height="11.956" fill="#191919"/>
      </g>
      <path id="패스_282" data-name="패스 282" d="M494.216,304.25h0l-5.669,11.956h2.242l3.427-7.227,3.427,7.227h2.242Z" transform="translate(-423.687 -304.25)" fill="#191919"/>
      <path id="패스_283" data-name="패스 283" d="M294.11,316.23h0l-5.67-11.956h2.242l3.427,7.227,3.427-7.227h2.242Z" transform="translate(-288.44 -304.267)" fill="#191919"/>
      <g id="그룹_709" data-name="그룹 709" transform="translate(27.265 0.042)">
        <path id="패스_284" data-name="패스 284" d="M381.443,311.812a3.7,3.7,0,0,1-.751,1.175,3.328,3.328,0,0,1-4.891,0,3.689,3.689,0,0,1-.751-1.175,3.927,3.927,0,0,1,0-2.893,3.7,3.7,0,0,1,.751-1.175,3.328,3.328,0,0,1,4.891,0,3.7,3.7,0,0,1,.751,1.175l.007.019,2.03-.877a5.679,5.679,0,0,0-5.234-3.674,5.987,5.987,0,0,0,0,11.958,5.683,5.683,0,0,0,5.253-3.722l-2.026-.888C381.463,311.76,381.453,311.786,381.443,311.812Z" transform="translate(-372.575 -304.386)" fill="#191919"/>
      </g>
      <path id="패스_285" data-name="패스 285" d="M331.14,306.023h0q-.074-.074-.15-.145l0,0q-.075-.07-.154-.138l0,0c-.052-.044-.1-.088-.156-.13l-.005,0-.079-.061h0l-.08-.061-.007-.005-.079-.058h0l-.082-.058-.008-.006-.08-.054h0l-.084-.054-.01-.006-.081-.05,0,0-.084-.05-.011-.006-.082-.047,0,0-.086-.047-.013-.007-.082-.043,0,0-.087-.043-.014-.007-.083-.039,0,0-.088-.039-.016-.007-.083-.036,0,0-.089-.036-.017-.007-.084-.032-.006,0-.089-.033-.018-.006-.085-.029-.006,0-.091-.029-.019-.006-.087-.025-.005,0-.092-.025-.02-.005-.087-.022-.005,0-.093-.022-.021,0-.089-.019h0l-.094-.018-.022,0-.091-.016h0l-.094-.014-.023,0-.092-.012h0l-.1-.011-.023,0-.094-.009h0l-.1-.007-.024,0-.1,0h0l-.1,0h-.245l-.1,0h0l-.1,0-.024,0-.1.007h0l-.094.009-.024,0-.1.011h0l-.092.012-.023,0-.095.014h0l-.091.016-.022,0-.094.018h0l-.089.019-.021,0-.092.022-.006,0-.087.022-.02.005-.092.025-.005,0-.087.025-.019.006-.091.029-.006,0-.086.029-.018.006-.089.033-.006,0-.084.032-.017.007-.089.036-.005,0-.083.036-.016.007-.088.039,0,0-.083.039-.015.007-.086.043,0,0-.082.043-.013.007-.085.047,0,0-.082.047-.011.006-.084.05,0,0-.081.05-.01.006-.083.054h0l-.08.054-.008.006-.082.058h0l-.079.058-.007.005-.081.061h0l-.078.061-.005,0q-.08.064-.157.13l0,0c-.051.045-.1.091-.153.138l0,0c-.051.047-.1.1-.15.145h0a6.118,6.118,0,0,0-1.772,4.341,6.238,6.238,0,0,0,.456,2.353l.005.013q.039.094.08.188l.006.013c.028.062.057.123.087.184l.006.012c.03.061.061.121.093.18l.007.012c.032.059.065.118.1.176l.007.012.052.087h0l.052.084.007.011c.018.028.036.056.055.085l0,0,.054.08.007.011.057.082,0,.005.055.076.007.01.06.079.005.007.057.073.008.009.062.077.007.008.059.07.007.008.065.074.009.01.061.068.007.007.067.072.01.01.064.066.005.005.069.069.011.011.066.064,0,0,.071.066.012.011.07.062,0,0,.074.063.013.011.073.06h0l.076.06.014.011q.075.06.153.116l.015.011q.078.056.157.109l.016.01c.053.035.107.07.161.1l.016.01.082.049h0l.08.046.017.009.083.046.006,0,.079.041.017.009.084.043.009,0,.078.037.018.008.086.039.011.005.078.034.018.007.087.036.014.005.078.03.017.006.088.032.016.006.078.027.017.006.09.029.017.005.079.024.017,0,.091.025.019,0,.081.021.016,0,.092.022.02,0,.082.017.015,0,.093.018.021,0,.084.015.013,0,.094.015.022,0,.087.011h.011l.1.011.023,0,.09.008h.008l.1.007h.024l.094,0h0l.1,0h.245l.1,0h0l.094,0h.024l.1-.007h.008l.09-.008.023,0,.1-.011h.011l.087-.011.022,0,.094-.015.013,0,.084-.015.021,0,.093-.018.015,0,.082-.017.02,0,.092-.022.016,0,.08-.021.019,0,.091-.025.016,0,.079-.024.017-.005.09-.029.017-.006.078-.027.016-.006.088-.032.018-.006.078-.03.014-.005.087-.036.017-.007.078-.034.011-.005.086-.039.018-.008.078-.037.009,0,.085-.043.017-.009.079-.041.006,0,.083-.046.017-.009.08-.046h0l.082-.049.016-.01c.054-.034.108-.068.161-.1l.016-.01q.08-.053.158-.109l.015-.011c.052-.037.1-.076.154-.116l.014-.011.076-.06h0l.073-.06.013-.011.074-.063,0,0,.069-.062.012-.011.071-.066,0,0,.066-.064.011-.011.069-.069.006-.005.064-.066.009-.01.067-.072.007-.007.061-.068.008-.01.065-.074.007-.008.059-.07.007-.008.062-.077.007-.009.057-.073.006-.007.059-.079.008-.01.055-.076,0-.005.057-.082.007-.011.054-.08,0,0c.019-.028.037-.056.055-.085l.007-.011c.018-.028.035-.056.052-.084h0l.052-.087.007-.012q.051-.087.1-.176l.006-.012q.048-.089.093-.18l.006-.012q.045-.091.087-.184l.006-.013c.028-.062.055-.125.08-.188l.005-.013a6.244,6.244,0,0,0,.456-2.353A6.118,6.118,0,0,0,331.14,306.023Zm-.672,5.711h0l-.03.077a3.7,3.7,0,0,1-.751,1.175,3.328,3.328,0,0,1-4.891,0,3.7,3.7,0,0,1-.751-1.175l-.03-.077h0a3.926,3.926,0,0,1,.023-2.8h0l.007-.019a3.708,3.708,0,0,1,.751-1.175,3.329,3.329,0,0,1,4.891,0,3.7,3.7,0,0,1,.751,1.175l.007.019h0a3.931,3.931,0,0,1,.023,2.8Z" transform="translate(-311.292 -304.344)" fill="#191919"/>
    </g>
  </g>
</svg>
